<?xml version="1.0" encoding="iso-8859-1"?>
<!-- Generator: Adobe Illustrator 19.0.0, SVG Export Plug-In . SVG Version: 6.00 Build 0)  -->
<svg version="1.1" id="Layer_1" xmlns="http://www.w3.org/2000/svg" xmlns:xlink="http://www.w3.org/1999/xlink" x="0px" y="0px"
	 viewBox="0 0 512 512" style="enable-background:new 0 0 512 512;" xml:space="preserve">
<g>
	<g>
		<path d="M511.872,393.845c-0.043-0.725-0.235-1.387-0.427-2.091c-0.213-0.747-0.427-1.451-0.789-2.133
			c-0.149-0.277-0.149-0.597-0.32-0.853l-245.333-384c-3.925-6.144-14.037-6.144-17.963,0l-245.333,384
			c-0.149,0.213-0.149,0.491-0.256,0.704c-0.427,0.789-0.704,1.621-0.939,2.517c-0.149,0.576-0.299,1.109-0.341,1.685
			C0.149,393.995,0,394.229,0,394.528c0,0.661,0.256,1.216,0.384,1.856c0.064,0.405-0.021,0.832,0.085,1.237
			c0.043,0.171,0.192,0.277,0.235,0.427c0.341,0.96,0.853,1.771,1.429,2.56c0.277,0.384,0.469,0.811,0.789,1.152
			c0.96,1.024,2.069,1.835,3.371,2.432c0.043,0.021,0.085,0.064,0.128,0.085h0.021c0.043,0.021,0.085,0.043,0.149,0.064
			l245.163,106.603c1.344,0.597,2.795,0.896,4.245,0.896s2.901-0.299,4.288-0.896l245.333-106.667
			c0.256-0.107,0.405-0.341,0.64-0.469c1.024-0.555,1.984-1.173,2.773-2.027c0.405-0.427,0.64-0.96,0.981-1.451
			c0.469-0.704,0.939-1.387,1.237-2.176c0.085-0.192,0.256-0.32,0.32-0.533c0.149-0.512,0.043-1.045,0.128-1.579
			c0.064-0.512,0.299-0.981,0.299-1.515C512,394.293,511.872,394.08,511.872,393.845z M256,489.568L61.952,405.195h388.117
			L256,489.568z M30.144,383.861L256,30.347l225.856,353.515H30.144z"/>
	</g>
</g>
<g>
</g>
<g>
</g>
<g>
</g>
<g>
</g>
<g>
</g>
<g>
</g>
<g>
</g>
<g>
</g>
<g>
</g>
<g>
</g>
<g>
</g>
<g>
</g>
<g>
</g>
<g>
</g>
<g>
</g>
</svg>
