<?xml version="1.0" encoding="utf-8"?>
<!-- Generator: Adobe Illustrator 24.1.1, SVG Export Plug-In . SVG Version: 6.00 Build 0)  -->
<svg version="1.1" id="Layer_1" xmlns="http://www.w3.org/2000/svg" xmlns:xlink="http://www.w3.org/1999/xlink" x="0px" y="0px"
	 viewBox="0 0 500 500" style="enable-background:new 0 0 500 500;" xml:space="preserve">
<style type="text/css">
	.st0{fill:#E63523;}
</style>
<g>
	<path class="st0" d="M241.7,267.2h-26.3l-6.6,19.9c-0.1,0.6-0.5,0.9-1.2,0.9h-11.9c-0.8,0-1-0.4-0.8-1.1l23.6-67.4
		c0.5-1.1,0.9-3.3,1-6.4c0-0.5,0.3-0.7,0.8-0.7h16.3c0.4,0,0.7,0.2,0.9,0.6l26.3,74c0.2,0.7,0,1-0.7,1h-13.4c-0.5,0-0.9-0.3-1.1-0.8
		L241.7,267.2z M218.3,256.2h20.4c-0.3-1.1-1.9-5.9-4.8-14.4c-2.8-8.6-4.7-14.5-5.6-17.7h-0.1C227.4,228,224.1,238.7,218.3,256.2z"
		/>
	<path class="st0" d="M295.8,289.1c-8.8,0-15.8-2.4-21.2-7.1c-5.3-4.8-7.9-11.9-7.9-21.2c0-8.4,2.8-15.3,8.5-20.8
		c5.7-5.5,13.4-8.3,23-8.3c2.6,0,4.8,0.2,6.4,0.7V207c0-0.5,0.3-0.8,0.8-0.8h12.9c0.5,0,0.7,0.2,0.7,0.7v68.4c0,1.3,0.1,3.9,0.3,7.7
		c0.1,0.5-0.2,0.9-0.7,1C311.5,287.4,303.9,289.1,295.8,289.1z M304.5,277.3v-34.4c-1.7-0.8-3.9-1.2-6.6-1.2c-5,0-9,1.6-12,4.9
		c-3,3.2-4.5,7.7-4.5,13.6c0,6.2,1.5,10.8,4.5,13.8c3,3,6.8,4.5,11.5,4.5C300.5,278.6,302.8,278.2,304.5,277.3z"/>
	<path class="st0" d="M355.5,231.7c8.6,0,15.4,2.7,20.3,8.1c4.9,5.4,7.4,12.2,7.4,20.4c0,8.9-2.6,16-7.7,21.2
		c-5.1,5.1-11.9,7.7-20.2,7.7c-9.2,0-16.1-2.8-20.9-8.3c-4.8-5.6-7.1-12.4-7.1-20.4c0-8.4,2.6-15.3,7.7-20.7
		C340.2,234.4,347,231.7,355.5,231.7z M354.9,241.6c-3.9,0-7.1,1.7-9.5,5c-2.4,3.3-3.6,7.8-3.6,13.6c0,5.8,1.2,10.4,3.6,13.8
		c2.4,3.4,5.8,5.1,10.1,5.1c3.7,0,6.8-1.6,9.3-4.7c2.5-3.2,3.7-7.9,3.7-14.1c0-5.7-1.1-10.2-3.4-13.6
		C362.9,243.3,359.5,241.6,354.9,241.6z"/>
	<path class="st0" d="M392.2,206.2h12.7c0.6,0,0.9,0.3,0.9,0.9v26.7c3.7-1.4,7.6-2,11.8-2c7.9,0,14.2,2.5,18.9,7.6
		c4.8,5,7.1,11.5,7.1,19.4c0,9.5-2.9,16.9-8.8,22.4c-5.9,5.4-12.9,8.1-21.1,8.1c-8.5,0-15.7-1.4-21.7-4.3c-0.5-0.2-0.7-0.6-0.7-1.1
		V207C391.4,206.4,391.6,206.2,392.2,206.2z M428.9,260.1c0-5.8-1.3-10.2-4-13.2c-2.6-3-6.1-4.5-10.6-4.5c-3.3,0-6.2,0.6-8.6,1.8
		v33.1c2.2,1.2,5.1,1.8,8.7,1.8c4,0,7.4-1.6,10.2-4.9C427.5,270.9,428.9,266.2,428.9,260.1z"/>
	<path class="st0" d="M487,263h-22.8c0.1,4.6,1.5,8.3,4.3,11.1c2.9,2.7,7,4.1,12.5,4.1c5.4,0,10.1-0.9,14.1-2.8
		c0.5-0.2,0.7,0,0.7,0.6v8.5c0,0.7-0.2,1.1-0.7,1.4c-4.8,2.2-10.5,3.3-17.1,3.3c-5.1,0-9.5-0.8-13.3-2.4c-3.8-1.6-6.7-3.7-8.8-6.5
		c-2.1-2.7-3.7-5.7-4.8-8.9c-1-3.3-1.5-6.7-1.5-10.4c0-8.2,2.4-15.2,7.1-20.8c4.8-5.7,11.4-8.5,19.7-8.5c7.9,0,13.8,2.3,17.7,7
		c3.9,4.7,5.9,10.2,5.9,16.5c0,2.3-0.2,4.5-0.5,6.5c-0.1,0.5-0.4,0.8-0.9,0.9C496.5,262.9,492.6,263,487,263z M464.1,254.2h16.1
		c3.6,0,5.6-0.1,6-0.2c0.1-0.3,0.1-0.8,0.1-1.6c0-2.9-0.8-5.4-2.5-7.7c-1.6-2.3-4.2-3.4-7.9-3.4c-3.6,0-6.4,1.2-8.4,3.7
		C465.6,247.4,464.5,250.5,464.1,254.2z"/>
	<polygon class="st0" points="94.4,183.8 149.7,183.8 149.7,316.3 	"/>
	<polygon class="st0" points="55.4,183.8 0,183.8 0,316.3 	"/>
	<polygon class="st0" points="74.9,232.6 110.1,316.3 87,316.3 76.5,289.6 50.7,289.6 	"/>
</g>
</svg>
