<?xml version="1.0" encoding="utf-8"?>
<!-- Generator: Adobe Illustrator 19.0.0, SVG Export Plug-In . SVG Version: 6.00 Build 0)  -->
<svg version="1.1" id="Layer_1" xmlns="http://www.w3.org/2000/svg" xmlns:xlink="http://www.w3.org/1999/xlink" x="0px" y="0px"
	 viewBox="0 0 500 500" style="enable-background:new 0 0 500 500;" xml:space="preserve">
<style type="text/css">
	.st0{fill:url(#XMLID_41_);}
	.st1{fill:#FFFFFF;}
</style>
<g id="XMLID_1_">
	
		<linearGradient id="XMLID_41_" gradientUnits="userSpaceOnUse" x1="-0.3084" y1="0.2855" x2="3.5566" y2="0.2855" gradientTransform="matrix(-41.295 31.3807 -23.3127 -55.5862 251.3367 241.602)">
		<stop  offset="0" style="stop-color:#47348E"/>
		<stop  offset="1" style="stop-color:#AC267E"/>
	</linearGradient>
	<path id="XMLID_13_" class="st0" d="M67.5,179.3v141.4H265V179.3H67.5z M305,229.3l-17.6,41.3h6l5.2-12.2h17.4l5.4,12.2h6
		l-18.4-41.3H305z M379.4,229.5v14.6c-2.1-0.8-4-1.2-5.8-1.2c-3.9,0-7,1.3-9.5,3.9c-2.5,2.6-3.7,5.8-3.7,9.8c0,4.2,1.1,7.6,3.5,10.1
		c2.4,2.5,5.5,3.9,9.5,3.9h11.5v-41.1H379.4z M394.8,232.2c-0.8,0-1.5,0.3-2.2,1c-0.6,0.6-1,1.4-1,2.2c0,0.8,0.3,1.5,1,2.2
		c0.6,0.6,1.4,1,2.2,1c0.9,0,1.7-0.2,2.3-0.8c0.6-0.6,0.8-1.4,0.8-2.3c0-0.9-0.2-1.6-0.8-2.2C396.5,232.5,395.7,232.2,394.8,232.2z
		 M307,238.3l6.5,14.9h-12.7L307,238.3z M331.2,243.5V259c0,3.4,0.4,5.8,1.1,7.2c0.7,1.5,1.8,2.7,3.3,3.5c1.4,0.9,3,1.3,4.7,1.3
		c1.4,0,2.9-0.4,4.3-1.1c1.5-0.7,2.9-1.7,4-2.9v3.5h5.3v-27.1h-5.3v19.3c-1.8,2.5-4,3.7-6.5,3.7c-2,0-3.5-0.6-4.3-1.7
		c-0.8-1.1-1.2-3.1-1.2-5.9v-15.5H331.2z M392.2,243.5v27.1h5.3v-27.1H392.2z M418.1,243.5c-4.2,0-7.6,1.2-10.4,3.9
		c-2.8,2.6-4.1,5.9-4.1,9.9c0,3.9,1.4,7.2,4.1,9.8c2.7,2.6,6.1,4,10.1,4c4.2,0,7.6-1.3,10.4-3.9c2.8-2.6,4.2-5.9,4.2-9.8
		c0-4-1.4-7.3-4.1-9.9C425.7,244.9,422.2,243.5,418.1,243.5z M374.4,247.6c1.7,0,3.3,0.4,5,1.2V266h-4.1c-2.4,0-4-0.2-5-0.5
		c-0.9-0.3-1.8-0.9-2.7-1.8c-1.4-1.5-2.1-3.6-2.1-6.4c0-3,0.8-5.4,2.4-7.1C369.6,248.4,371.7,247.6,374.4,247.6z M417.8,248.4
		c2.6,0,4.9,0.7,6.6,2.4c1.7,1.7,2.7,3.8,2.7,6.4c0,2.6-0.9,4.7-2.5,6.4c-1.7,1.7-3.9,2.4-6.5,2.4c-2.6,0-4.7-0.8-6.4-2.4
		c-1.7-1.6-2.5-3.7-2.5-6.3c0-2.6,0.8-4.8,2.4-6.5C413.1,249.1,415.2,248.4,417.8,248.4z"/>
	<path id="XMLID_18_" class="st1" d="M172,256c0,4.5-5.6,4.2-5.6,4.2h-5.6v-8.1h5.6C172.2,252.1,172,256,172,256 M160.9,239.9h4.2
		c4.4,0.2,4.2,3.5,4.2,3.5c0,4.1-4.9,4.1-4.9,4.1h-3.6V239.9z M171,249.1c0,0,3.8-1.6,3.8-5.9c0,0,0.6-7-8.7-7.9h-10.4v29.5h11.9
		c0,0,9.9,0,9.9-8.3C177.5,256.5,177.7,250.8,171,249.1 M144.2,229.5h43.6v41.1h-43.6V229.5z"/>
	<path id="XMLID_23_" class="st1" d="M121.8,256c0,4.5-5.6,4.2-5.6,4.2h-5.6v-8.1h5.6C122,252.1,121.8,256,121.8,256 M110.7,239.9
		h4.2c4.4,0.2,4.2,3.5,4.2,3.5c0,4.1-4.9,4.1-4.9,4.1h-3.6V239.9z M120.8,249.1c0,0,3.8-1.6,3.8-5.9c0,0,0.6-7-8.7-7.9h-10.4v29.5
		h11.9c0,0,9.9,0,9.9-8.3C127.2,256.5,127.4,250.8,120.8,249.1 M94,229.5h43.6v41.1H94V229.5z"/>
	<path id="XMLID_26_" class="st1" d="M229.2,237.4v5.5c0,0-5.3-3.3-11.2-3.3c0,0-11-0.2-11.5,10.5c0,0-0.4,9.9,11.3,10.4
		c0,0,4.9,0.6,11.6-3.7v5.7c0,0-9,5.3-19.3,1.2c0,0-8.7-3.2-9.1-13.6c0,0-0.4-10.7,11.3-14.3c0,0,3.1-1.2,8.7-0.7
		C221,235.1,224.3,235.4,229.2,237.4 M194.5,270.6h43.6v-41.1h-43.6V270.6z"/>
</g>
</svg>
