<?xml version="1.0" encoding="utf-8"?>
<!-- Generator: Adobe Illustrator 19.0.0, SVG Export Plug-In . SVG Version: 6.00 Build 0)  -->
<svg version="1.1" id="Layer_1" xmlns="http://www.w3.org/2000/svg" xmlns:xlink="http://www.w3.org/1999/xlink" x="0px" y="0px"
	 viewBox="0 0 500 500" style="enable-background:new 0 0 500 500;" xml:space="preserve">
<style type="text/css">
	.st0{fill-rule:evenodd;clip-rule:evenodd;fill:url(#XMLID_59_);}
	.st1{fill-rule:evenodd;clip-rule:evenodd;fill:url(#XMLID_60_);}
	.st2{fill-rule:evenodd;clip-rule:evenodd;fill:url(#XMLID_61_);}
	.st3{fill-rule:evenodd;clip-rule:evenodd;fill:#2E3439;}
	.st4{fill-rule:evenodd;clip-rule:evenodd;fill:url(#XMLID_62_);}
	.st5{fill-rule:evenodd;clip-rule:evenodd;fill:url(#XMLID_63_);}
	.st6{fill-rule:evenodd;clip-rule:evenodd;fill:url(#XMLID_65_);}
	.st7{fill-rule:evenodd;clip-rule:evenodd;fill:url(#XMLID_66_);}
	.st8{fill-rule:evenodd;clip-rule:evenodd;fill:url(#XMLID_67_);}
	.st9{fill-rule:evenodd;clip-rule:evenodd;fill:url(#XMLID_71_);}
	.st10{fill-rule:evenodd;clip-rule:evenodd;fill:#240A0D;}
	.st11{fill-rule:evenodd;clip-rule:evenodd;fill:#FFFFFF;}
	.st12{fill-rule:evenodd;clip-rule:evenodd;fill:url(#XMLID_72_);}
	.st13{fill-rule:evenodd;clip-rule:evenodd;fill:url(#XMLID_73_);}
	.st14{fill-rule:evenodd;clip-rule:evenodd;fill:url(#XMLID_74_);}
</style>
<g id="XMLID_1_">
	<linearGradient id="XMLID_59_" gradientUnits="userSpaceOnUse" x1="109.3651" y1="305.0979" x2="441.2676" y2="135.9851">
		<stop  offset="0" style="stop-color:#696F76"/>
		<stop  offset="0.35" style="stop-color:#E6E7E8"/>
		<stop  offset="0.57" style="stop-color:#A6A8AB"/>
		<stop  offset="0.86" style="stop-color:#E6E7E8"/>
		<stop  offset="1" style="stop-color:#FFFFFF"/>
	</linearGradient>
	<path id="XMLID_34_" class="st0" d="M183.5,81.9c-27.7,6-79.2,19.1-92.6,46.8c-19.4,39.9,23,147.8,43,183.8
		c18.6,33.6,43.4,65,76.8,93.7c13.4,13,26.8,19.1,40.1,18.8c13.1-0.3,26.1-6.7,39.2-18.8c38.1-34.1,67.3-71.9,87.9-113.4
		c17.1-34.5,51.9-135.3,28.3-170.7c-14.4-21.5-63.5-35.5-87.9-40.5C275.4,72.8,226.3,72.7,183.5,81.9z"/>
	
		<linearGradient id="XMLID_60_" gradientUnits="userSpaceOnUse" x1="111321.4531" y1="-15419.5342" x2="-101300.2188" y2="14462.4922">
		<stop  offset="0" style="stop-color:#FFFFFF"/>
		<stop  offset="1" style="stop-color:#FFFFFF"/>
	</linearGradient>
	<path id="XMLID_33_" class="st1" d="M115.5,237.3l0.3,0.9c9.4-6.8,19.8-11.7,30.7-15.3c61.8-20.5,181.9-15.8,249-17.3
		c4.5-19.7,10.3-53.4,2.9-71.3c6.9,18.1,1.2,51-3.3,70.4c-67.2,1.5-187.2-3.2-249,17.3C135.2,225.6,124.9,230.4,115.5,237.3z"/>
	
		<radialGradient id="XMLID_61_" cx="256.7578" cy="222.8222" r="125.3861" gradientTransform="matrix(0.9459 0 0 0.9459 13.1823 13.2132)" gradientUnits="userSpaceOnUse">
		<stop  offset="0" style="stop-color:#D21F25"/>
		<stop  offset="1" style="stop-color:#991A1D"/>
	</radialGradient>
	<path id="XMLID_35_" class="st2" d="M186.1,94.1c-22.7,4.9-73,17.4-84.1,40.1c-10.1,20.7,2.6,68.7,9.1,89.6c1.4,4.5,2.8,9,4.3,13.5
		c9.4-6.8,19.8-11.7,30.7-15.3c61.8-20.5,181.9-15.8,249-17.3c4.9-21.5,11.4-59.5,0.6-75.7c-11.8-17.7-59.8-31-80-35.2
		C274.4,85.3,227.5,85.2,186.1,94.1L186.1,94.1z M150.2,315.8c-3.7-6.2,1-19.3,4.7-24.8c30.7-45.7,155.6-72.9,236.7-72
		c-3.3,12.1-7.2,24.2-11.4,36c-3.9,10.8-8.3,21.9-13.4,32.2c-20.9,42-50.6,78.2-85.2,109.7c-8.3,7.6-19.3,15.3-31,15.6
		c-11.9,0.3-23.1-7.9-31.5-15.6C192.7,372.9,168.7,346.3,150.2,315.8z"/>
	<path id="XMLID_2_" class="st3" d="M155.8,152.1c-0.8-1-2.1-1.6-4.2-1.6H150l-4.8,22.8h-0.6l5-23.5h1.7
		C153.7,149.7,155.1,150.6,155.8,152.1L155.8,152.1z M172.1,146.8c2.3,3.9,2.4,9.1,1.1,15.1c-2.8,13-13,21.1-26.2,21.1h-20.6
		l-0.2,0.8h21.3c13.3,0,23.5-8.1,26.2-21.1C175,156.3,174.8,150.8,172.1,146.8z"/>
	<path id="XMLID_3_" class="st3" d="M217.5,169.4c-2.2,10.4-10.8,15.6-23.8,15.6c-8.3,0-13.8-2.1-16.2-6.3c2.6,3.7,8,5.5,15.8,5.5
		c13,0,21.6-5.2,23.8-15.6l5.9-27.9h0.6L217.5,169.4L217.5,169.4z M199,140.7l-5.8,27.2c-0.4,2-0.1,3.3,0.6,4
		c-0.3-0.8-0.4-1.8-0.1-3.3l5.9-28H199z"/>
	<path id="XMLID_4_" class="st3" d="M264.4,167.9c-2.5,11.9-13.1,17.1-23.8,17.1c-8,0-13.2-2.6-15.9-7c2.8,4,7.8,6.3,15.4,6.3
		c10.5,0,20.8-5,23.7-16.3H264.4L264.4,167.9z M265.2,145.2c1.9,2.7,2.6,6.4,1.5,11.5h-15.7c0-0.3,0.1-0.5,0.1-0.8h15.1
		C267.2,151.3,266.7,147.8,265.2,145.2L265.2,145.2z M250.5,151.6c-0.5-1.2-1.5-1.5-2.7-1.5c-4.4,0-5.8,4.5-7.3,11.5
		c-1,4.9-1.7,8.9-0.1,10.6c-0.9-2-0.3-5.5,0.6-9.8c1.5-6.9,2.9-11.5,7.3-11.5C249.1,150.8,249.9,151,250.5,151.6z"/>
	<path id="XMLID_5_" class="st3" d="M292.6,151l-6.5,14.7h-0.8l7.2-16.3h0.1L292.6,151L292.6,151z M306.1,140.7h0.4l4.7,43.1h-17.7
		l0-0.8h17.2L306.1,140.7L306.1,140.7z M292.8,176.9h-11.9l-3.2,6.9h-16.4l0.4-0.8h15.5l3.2-6.9h12.4L292.8,176.9z"/>
	<path id="XMLID_6_" class="st3" d="M323.6,152.3h-10l0.2-0.8h10L323.6,152.3L323.6,152.3z M353.8,140.7l-2.3,10.8h-10.6l-6.7,31.6
		h-16.4l-0.2,0.8h17.1l6.7-31.6H352l2.5-11.6H353.8z"/>
	<polygon id="XMLID_12_" class="st3" points="374.1,140.7 374.8,140.7 365.6,183.8 348.5,183.8 348.7,183.1 365.1,183.1 	"/>
	<linearGradient id="XMLID_62_" gradientUnits="userSpaceOnUse" x1="145.4724" y1="192.9002" x2="156.5626" y2="135.8457">
		<stop  offset="0" style="stop-color:#696F76"/>
		<stop  offset="1" style="stop-color:#FFFFFF"/>
	</linearGradient>
	<path id="XMLID_7_" class="st4" d="M144.5,173.3h1.7c2.8,0,4.6-1,6-2.7c1.5-1.8,2.5-4.8,3.4-9c0.9-4.2,1.2-7.2,0.4-9
		c-0.7-1.7-2.1-2.8-4.9-2.8h-1.7L144.5,173.3L144.5,173.3z M134.8,139.9L134.8,139.9h20.3c17.3,0,20.8,9.3,18.1,22.1
		c-2.8,13-13,21.1-26.2,21.1h-21.3L134.8,139.9z"/>
	<linearGradient id="XMLID_63_" gradientUnits="userSpaceOnUse" x1="173.9099" y1="286.2343" x2="223.8426" y2="29.3526">
		<stop  offset="0" style="stop-color:#696F76"/>
		<stop  offset="1" style="stop-color:#FFFFFF"/>
	</linearGradient>
	<path id="XMLID_9_" class="st5" d="M217,168.6c-2.2,10.4-10.8,15.6-23.8,15.6c-13,0-19.4-5.2-17.2-15.6l6.1-28.7h17.1l-5.9,28
		c-0.7,3.4,0.6,4.7,2.4,4.7c1.8,0,3.7-1.3,4.4-4.7l5.9-28h17.1L217,168.6z"/>
	<linearGradient id="XMLID_65_" gradientUnits="userSpaceOnUse" x1="238.7304" y1="191.4769" x2="249.2832" y2="131.629">
		<stop  offset="0" style="stop-color:#696F76"/>
		<stop  offset="1" style="stop-color:#FFFFFF"/>
	</linearGradient>
	<path id="XMLID_8_" class="st6" d="M263.9,167.1c-2.5,11.9-13.1,17.1-23.8,17.1c-15.1,0-20.2-9.2-17.2-22.9
		c2.4-13.4,12.4-22.5,27-22.5c10.9,0,19.1,4.4,16.5,17.1h-15.7c0.8-4.9-0.8-5.9-2.9-5.9c-4.4,0-5.8,4.5-7.3,11.5
		c-1.4,6.6-2.1,11.5,2.2,11.5c2.2,0,4-1.3,5.2-5.9H263.9z"/>
	<linearGradient id="XMLID_66_" gradientUnits="userSpaceOnUse" x1="281.6924" y1="204.0369" x2="297.6239" y2="122.0762">
		<stop  offset="0" style="stop-color:#696F76"/>
		<stop  offset="1" style="stop-color:#FFFFFF"/>
	</linearGradient>
	<path id="XMLID_25_" class="st7" d="M292.5,165.6l0.1-16.3h-0.1l-7.2,16.3H292.5L292.5,165.6z M283.8,139.9L283.8,139.9H306
		l4.7,43.1H293l-0.2-6.9h-12.4l-3.2,6.9h-16.4L283.8,139.9z"/>
	<linearGradient id="XMLID_67_" gradientUnits="userSpaceOnUse" x1="325.8965" y1="194.1378" x2="336.3834" y2="127.9264">
		<stop  offset="0" style="stop-color:#696F76"/>
		<stop  offset="1" style="stop-color:#FFFFFF"/>
	</linearGradient>
	<polygon id="XMLID_28_" class="st8" points="323.8,151.5 313.2,151.5 315.6,139.9 354,139.9 351.5,151.5 340.9,151.5 334.2,183.1 
		317.1,183.1 	"/>
	<linearGradient id="XMLID_71_" gradientUnits="userSpaceOnUse" x1="357.856" y1="192.959" x2="364.4394" y2="130.3221">
		<stop  offset="0" style="stop-color:#696F76"/>
		<stop  offset="1" style="stop-color:#FFFFFF"/>
	</linearGradient>
	<polygon id="XMLID_29_" class="st9" points="357.2,139.9 374.3,139.9 365.1,183.1 348,183.1 	"/>
	<path id="XMLID_30_" class="st10" d="M149.9,308.8c0.6-6.1,3.5-13.1,6-16.8c30.6-45.5,154.5-72.7,235.7-72l0.3-1.1
		c-78.9-0.9-199,24.8-233.9,68.2c0.6-0.8,1.3-1.6,2-2.4c-1.8,2.1-3.5,4.2-4.9,6.3c-3.7,5.5-8.5,18.7-4.7,24.8
		c18.5,30.5,42.6,57.2,68.9,81.2c8.4,7.7,19.5,15.8,31.5,15.6c11.7-0.3,22.7-8,31-15.6c13.6-12.4,26.4-25.5,38.3-39.4
		c-11.6,13.5-24.1,26.2-37.3,38.2c-8.3,7.6-19.3,15.3-31,15.6c-11.9,0.3-23.1-7.9-31.5-15.6c-26.3-24-50.4-50.7-68.9-81.2
		C150.3,313.1,149.9,311.1,149.9,308.8z"/>
	<path id="XMLID_36_" class="st10" d="M186.1,94.1c-22.7,4.9-73,17.4-84.1,40.1c-10.1,20.7,2.6,68.7,9.1,89.6
		c1.4,4.5,2.8,9,4.3,13.5l0.3-0.2c-1.4-4.1-2.7-8.1-3.9-12.2c-6.4-21-19.2-68.9-9.1-89.6c11-22.7,61.3-35.2,84.1-40
		c41.4-8.9,88.3-8.8,129.7-0.3c20.2,4.1,67.7,17.3,79.8,34.9c-0.2-0.3-0.3-0.6-0.5-0.8c-11.8-17.7-59.8-31-80-35.2
		C274.4,85.3,227.5,85.2,186.1,94.1z"/>
	<path id="XMLID_37_" class="st11" d="M249.8,412.5c0.4,0,0.7,0,1.1,0c11.7-0.3,22.7-8,31-15.6c34.6-31.5,64.3-67.7,85.2-109.7
		c5.1-10.3,9.5-21.4,13.4-32.2c4.3-11.8,8.1-23.8,11.4-36l-1.3,1c-3.2,11.8-7,23.5-11.2,34.9c-3.9,10.8-8.3,21.9-13.4,32.2
		c-20.9,42-50.6,78.2-85.2,109.7C272.6,404.5,261.6,412.2,249.8,412.5L249.8,412.5z"/>
	<radialGradient id="XMLID_72_" cx="281.6172" cy="373.1552" r="30.8098" gradientUnits="userSpaceOnUse">
		<stop  offset="0" style="stop-color:#FFFFFF"/>
		<stop  offset="1" style="stop-color:#963032"/>
	</radialGradient>
	<path id="XMLID_42_" class="st12" d="M248.6,399.9L248.6,399.9c3.9,2.7,8.7,2.9,16.4-4.4c19.4-16.6,35.5-33.4,49.6-50.9
		C282.5,377,254.4,400.3,248.6,399.9z"/>
	<radialGradient id="XMLID_73_" cx="386.8239" cy="153.5299" r="11.5333" gradientUnits="userSpaceOnUse">
		<stop  offset="0" style="stop-color:#FFFFFF"/>
		<stop  offset="1" style="stop-color:#963032"/>
	</radialGradient>
	<path id="XMLID_38_" class="st13" d="M386.7,169.6c0-6.9,0.1-14-1.2-20.8c-0.8-4.6-1.9-8.2-0.8-10.2c0.8-1.4,2.4-1.7,3.5-0.5
		c0.9,1,1.2,4,1.2,7.1C389.4,153.3,388.1,161.7,386.7,169.6z"/>
	<radialGradient id="XMLID_74_" cx="121.1003" cy="131.2995" r="8.5658" gradientUnits="userSpaceOnUse">
		<stop  offset="0" style="stop-color:#FFFFFF"/>
		<stop  offset="1" style="stop-color:#963032"/>
	</radialGradient>
	<path id="XMLID_39_" class="st14" d="M131.4,125c-4.4,2.5-8.9,5.1-12.8,8.4c-2.6,2.2-4.5,4.2-6.2,4.2c-1.2,0-1.9-0.9-1.6-2
		c0.3-0.9,2.1-2.2,4.1-3.3C120.1,129.3,125.9,127,131.4,125z"/>
</g>
</svg>
