<?xml version="1.0" encoding="utf-8"?>
<!-- Generator: Adobe Illustrator 19.0.0, SVG Export Plug-In . SVG Version: 6.00 Build 0)  -->
<svg version="1.1" id="Layer_1" xmlns="http://www.w3.org/2000/svg" xmlns:xlink="http://www.w3.org/1999/xlink" x="0px" y="0px"
	 viewBox="0 0 500 500" style="enable-background:new 0 0 500 500;" xml:space="preserve">
<style type="text/css">
	.st0{fill:url(#XMLID_3_);}
	.st1{fill:#FCD109;}
	.st2{fill:#F8F3B5;}
	.st3{fill:#F7B402;}
	.st4{fill:#BDA727;}
	.st5{fill:#F7E62D;}
	.st6{fill:url(#XMLID_4_);}
	.st7{fill:url(#XMLID_5_);}
	.st8{fill:url(#XMLID_6_);}
	.st9{fill:#0D69B3;}
	.st10{fill:#107BD4;}
	.st11{fill:#FFFFFF;}
	.st12{clip-path:url(#XMLID_7_);fill:#D1D1D1;}
</style>
<g id="XMLID_109_">
	
		<linearGradient id="XMLID_3_" gradientUnits="userSpaceOnUse" x1="-1.481385e-008" y1="-3.208424e-007" x2="1" y2="-3.208424e-007" gradientTransform="matrix(-2.720546e-005 79.9519 -79.9519 -2.720546e-005 383.9695 218.1545)">
		<stop  offset="0" style="stop-color:#F7E830"/>
		<stop  offset="1" style="stop-color:#FDCB06"/>
	</linearGradient>
	<path id="XMLID_111_" class="st0" d="M432.4,218.6c0-0.1-0.1-0.3-0.1-0.4c-32.2,0-64.4,0-96.6,0c-0.1,0.1-0.1,0.2-0.1,0.3
		c0,25,0,50,0,75c0.2,1.3,0.9,2.5,1.9,3.5l0.2,0c0.5,0.5,1.2,0.8,1.9,1c0.5,0,1,0.2,1.5,0.1c13.3,0,26.7,0,40,0
		c0.4,0,0.8,0.1,1.1-0.1l0-0.2l0-0.3c0.9-4.8,1.7-9.6,2.6-14.4c0-0.2,0.1-0.4,0.1-0.6c-3.7,0-7.4,0-11.1,0c-0.9,0-1.8,0-2.7-0.1
		c-1.5-0.1-3.1,0-4.6-0.2c-1.9,0-3.8-0.2-5.7-0.2c-1.5-0.1-3-0.1-4.5-0.2c-1-0.1-2-0.1-3-0.1c-1.6-0.2-3.3-0.1-4.9-0.2
		c-1.7,0-3.4-0.1-5.1-0.2l0-0.1c0.6,0,1.1,0,1.7,0c1.3-0.2,2.5-0.1,3.8-0.2c1.3,0,2.6-0.2,3.9-0.2c1.2-0.2,2.4-0.1,3.5-0.2
		c1.4,0,2.7-0.2,4.1-0.2c1.1-0.1,2.3-0.1,3.4-0.2c1.3,0,2.6-0.2,3.9-0.2c1.3-0.1,2.6-0.1,3.9-0.2c-0.1-0.5-0.2-1-0.3-1.5
		c-0.1-0.3-0.5-0.2-0.7-0.3c-3-0.4-5.9-0.8-8.8-1.3c0.2-0.1,0.4-0.1,0.7-0.1c2.3-0.2,4.6-0.4,6.8-0.5c0.5,0,1-0.1,1.5-0.1
		c-0.2-0.7-0.4-1.5-0.7-2.1c-4.9-0.7-9.8-1.4-14.6-2.2c1.3-0.2,2.5-0.3,3.8-0.4l0.1,0c4-0.4,8.1-0.9,12.1-1.3c5.1,0,10.2,0,15.4,0
		c0.2,0,0.4,0.1,0.5-0.2c0.4-2.2,0.8-4.4,1.3-6.6c0.6-3.1,1.5-6.1,2.9-8.9c2.2-4.5,5.8-8.3,10.1-10.8c4-2.4,8.7-3.5,13.4-3.7
		c1.5-0.1,3-0.1,4.5,0.1c1,0.2,2,0.5,2.8,1.2c0.6,0.5,1,1.3,1.3,2c0.6,1.8,1,3.7,1.3,5.6c0,0.8,0.1,1.6-0.3,2.3
		c-0.4,0.7-1.1,1-1.9,1.2c-2.6,0.7-5.4,0-8,0.7c-2.2,0.5-4.2,1.7-5.5,3.4c-1.6,2-2.5,4.5-3,7c-0.4,2.2-0.8,4.5-1.2,6.7
		c2.6,0,5.2,0,7.8,0c1,0,2.1,0.6,2.5,1.6c0.5,1.3,0.4,2.7,0.2,4c-0.2,1.5-0.6,3-1.2,4.3c-0.6,1.2-1.5,2.2-2.7,2.6
		c-0.7,0.3-1.4,0.2-2.1,0.2c-2.3,0-4.6,0-6.9,0c-0.4,1.7-0.6,3.4-0.9,5.1c-0.6,3.3-1.2,6.6-1.8,9.9c0,0.1,0,0.3,0,0.5
		c1.1,0.1,2.1,0,3.2,0c8,0,16,0,23.9,0c0.9,0,1.7-0.2,2.5-0.6c0.4-0.2,0.7-0.6,1.1-0.8c0.4-0.2,0.5-0.7,0.8-1c0.4-0.6,0.7-1.3,0.7-2
		l0.2,0C432.4,268.6,432.5,243.6,432.4,218.6z"/>
	<path id="XMLID_115_" class="st1" d="M432.4,218.6L432.4,218.6c0-0.1-0.1-0.3-0.1-0.4l0,0h0c-16.1,0-32.2,0-48.3,0
		c-16.1,0-32.2,0-48.3,0h0l0,0c-0.1,0.1-0.1,0.2-0.2,0.3v0v0c0,25,0,50,0,75v0l0,0c0.2,1.3,0.9,2.5,1.9,3.5l0,0l0,0l0.2,0l0,0l0,0
		c0.5,0.5,1.2,0.8,1.9,1l0,0l0,0l0.1,0c0.4,0,0.8,0.1,1.2,0.1l0.2,0l0,0v0c13.3,0,26.7,0,40,0l0,0l0.1,0c0.1,0,0.3,0,0.4,0
		c0.2,0,0.4,0,0.6-0.1l0,0l0,0l0-0.2l0-0.3c0.9-4.8,1.7-9.6,2.6-14.4l0,0v0c0-0.2,0.1-0.4,0.1-0.6l0,0h0c-1.8,0-3.7,0-5.6,0
		s-3.7,0-5.6,0v0l0,0c-0.9,0-1.8,0-2.7-0.1h0h0c-1.5-0.1-3.1,0-4.6-0.2h0h0c-1.9,0-3.8-0.2-5.7-0.2v0l0,0c-1.5-0.1-3-0.1-4.5-0.2
		l0,0l0,0c-1-0.1-2-0.1-3-0.1l0,0l0,0c-1.6-0.2-3.3-0.1-4.9-0.2l0,0h0l-0.2,0c-1.6,0-3.3-0.1-4.9-0.2l0,0l0,0l0-0.1h0l0,0l0.2,0
		c0.5,0,1,0,1.5,0h0h0c1.3-0.2,2.5-0.1,3.8-0.2l0,0v0c1.3,0,2.6-0.2,3.9-0.2h0l0,0c1.2-0.2,2.4-0.1,3.5-0.2l0,0v0
		c1.4,0,2.7-0.2,4.1-0.2h0h0c1.1-0.1,2.3-0.1,3.4-0.2l0,0l0,0l0.1,0c1.2,0,2.5-0.2,3.7-0.2l0.1,0h0l0,0c1.3-0.1,2.6-0.1,3.9-0.2l0,0
		l0,0c-0.1-0.5-0.2-1-0.3-1.5l0,0v0c-0.1-0.3-0.5-0.2-0.7-0.3c-3-0.4-5.9-0.8-8.8-1.3l0,0l0,0c0.1-0.1,0.3-0.1,0.4-0.1l0.1,0l0.2,0
		l0,0l0,0c2.3-0.2,4.6-0.4,6.8-0.5c0.5,0,1-0.1,1.5-0.1l0,0l0,0c-0.2-0.7-0.4-1.5-0.7-2.1l0,0l0,0c-4.9-0.7-9.8-1.4-14.6-2.2l0,0
		l0,0c1.3-0.2,2.5-0.3,3.8-0.4l0,0l0.1,0l0,0l0,0c4-0.4,8.1-0.9,12.1-1.3l0,0v0c2.2,0,4.4,0,6.5,0c2.9,0,5.9,0,8.8,0h0l0,0l0.1,0
		l0.1,0l0.2,0l0.1-0.2l0,0l0,0c0.4-2.2,0.8-4.4,1.3-6.6c0.6-3.1,1.5-6.1,2.9-8.9c2.2-4.5,5.8-8.3,10.1-10.8c4-2.4,8.7-3.5,13.4-3.7
		c0.6-0.1,1.2-0.1,1.8-0.1c0.9,0,1.8,0.1,2.7,0.2l0,0l0,0c1,0.2,2,0.5,2.8,1.2c0.6,0.5,1,1.3,1.3,2c0.6,1.8,1,3.7,1.3,5.6l0,0l0,0
		c0,0.3,0,0.7,0,1c0,0.5-0.1,0.9-0.3,1.3c-0.4,0.7-1.1,1-1.9,1.2c-2.6,0.7-5.4,0-8,0.7c-2.2,0.5-4.2,1.7-5.6,3.4c-1.6,2-2.5,4.5-3,7
		c-0.4,2.2-0.8,4.5-1.2,6.7l0,0h0c0.6,0,1.2,0,1.8,0c1,0,2.1,0,3.1,0c1,0,1.9,0,2.9,0c1,0,2.1,0.6,2.5,1.5c0.3,0.7,0.4,1.4,0.4,2.1
		c0,0.6-0.1,1.2-0.1,1.8c-0.2,1.5-0.6,3-1.2,4.3c-0.6,1.2-1.5,2.2-2.7,2.6l0,0l0,0c-0.5,0.2-0.9,0.2-1.4,0.2c-0.2,0-0.4,0-0.6,0
		c-1.5,0-3,0-4.6,0c-0.8,0-1.5,0-2.3,0l0,0l0,0c-0.4,1.7-0.6,3.4-0.9,5.1c-0.6,3.3-1.2,6.6-1.8,9.9l0,0c0,0.1,0,0.3,0,0.5v0l0,0
		c0.4,0,0.8,0,1.2,0c0.4,0,0.9,0,1.3,0c0.2,0,0.5,0,0.7,0c5.3,0,10.6,0,16,0c2.7,0,5.3,0,8,0l0.2,0c0.8,0,1.6-0.2,2.3-0.6l0,0l0,0
		c0.5-0.2,0.7-0.6,1.1-0.8c0.4-0.2,0.5-0.7,0.8-1l0,0l0,0c0.4-0.6,0.7-1.3,0.7-2l0,0v0l0.2,0l0,0v0c0-9.8,0-19.5,0-29.3
		c0-7.9,0-15.8,0-23.6C432.4,233.4,432.4,226,432.4,218.6L432.4,218.6L432.4,218.6L432.4,218.6L432.4,218.6c0,7.4,0,14.8,0,22.2
		c0,7.9,0,15.8,0,23.6c0,9.8,0,19.5,0,29.3h0l0,0l-0.2,0h0l0,0c0,0.7-0.4,1.4-0.7,2l0,0l0,0c-0.3,0.3-0.4,0.7-0.8,1
		c-0.4,0.2-0.7,0.6-1.1,0.8l0,0l0,0c-0.7,0.4-1.5,0.6-2.3,0.6l-0.2,0c-2.7,0-5.3,0-8,0c-5.3,0-10.6,0-16,0c-0.2,0-0.5,0-0.7,0
		c-0.4,0-0.9,0-1.3,0c-0.4,0-0.8,0-1.2,0l0,0h0c0-0.1,0-0.4,0-0.5l0,0l0,0c0.6-3.3,1.2-6.6,1.8-9.9c0.3-1.7,0.6-3.4,0.9-5.1l0,0l0,0
		c0.8,0,1.5,0,2.3,0c1.5,0,3,0,4.6,0c0.2,0,0.4,0,0.6,0c0.5,0,1,0,1.4-0.2l0,0l0,0c1.3-0.4,2.2-1.5,2.8-2.6c0.7-1.4,1-2.8,1.2-4.3
		c0.1-0.6,0.1-1.2,0.1-1.8c0-0.7-0.1-1.5-0.4-2.1c-0.4-1-1.5-1.6-2.5-1.6c-1,0-1.9,0-2.9,0c-1,0-2.1,0-3.1,0c-0.6,0-1.2,0-1.8,0v0
		l0,0c0.4-2.2,0.8-4.5,1.2-6.7c0.5-2.5,1.3-5,3-7c1.4-1.7,3.4-2.9,5.5-3.4c2.6-0.6,5.4,0,8-0.7c0.7-0.2,1.5-0.5,1.9-1.2
		c0.2-0.4,0.3-0.9,0.3-1.3c0-0.3,0-0.7,0-1v0l0,0c-0.3-1.9-0.7-3.8-1.3-5.6c-0.3-0.8-0.7-1.5-1.3-2c-0.8-0.7-1.8-0.9-2.8-1.2l0,0h0
		c-0.9-0.1-1.8-0.2-2.7-0.2c-0.6,0-1.2,0-1.8,0.1c-4.7,0.2-9.3,1.4-13.4,3.7c-4.3,2.5-7.9,6.3-10.1,10.8c-1.4,2.8-2.4,5.8-2.9,8.9
		c-0.4,2.2-0.8,4.4-1.3,6.6v0l0,0l-0.1,0.1l-0.2,0l-0.1,0l-0.1,0l0,0v0c-2.9,0-5.9,0-8.8,0c-2.2,0-4.4,0-6.5,0h0h0
		c-4,0.4-8.1,0.9-12.1,1.3l0,0l-0.1,0l0,0l0,0c-1.3,0.1-2.5,0.2-3.8,0.4v0c4.9,0.8,9.8,1.5,14.6,2.2l0,0l0,0
		c0.3,0.7,0.4,1.4,0.7,2.1l0,0l0,0c-0.5,0-1,0.1-1.5,0.1c-2.3,0.2-4.6,0.4-6.8,0.5h0h0l-0.2,0l-0.1,0c-0.1,0-0.3,0-0.4,0.1l0,0l0,0
		c2.9,0.4,5.9,0.8,8.8,1.3c0.2,0,0.6,0,0.7,0.3l0,0l0,0c0.1,0.5,0.2,1,0.3,1.5l0,0l0,0c-1.3,0.1-2.6,0.1-3.9,0.2l0,0v0l-0.1,0
		c-1.2,0-2.5,0.2-3.7,0.2l-0.1,0h0l0,0c-1.1,0.1-2.3,0.1-3.4,0.2l0,0l0,0c-1.4,0-2.7,0.2-4.1,0.2h0l0,0c-1.2,0.2-2.4,0.1-3.5,0.2
		l0,0v0c-1.3,0-2.6,0.2-3.9,0.2h0l0,0c-1.3,0.2-2.5,0.1-3.8,0.2l0,0l0,0c-0.5,0-1,0-1.5,0l-0.2,0l0,0v0l0,0.1l0,0l0,0
		c1.6,0,3.3,0.2,4.9,0.2l0.2,0l0,0l0,0c1.6,0.2,3.3,0.1,4.9,0.2h0h0c1,0,2,0,3,0.1h0l0,0c1.5,0.1,3,0,4.5,0.2l0,0h0
		c1.9,0,3.8,0.2,5.7,0.2v0l0,0c1.5,0.1,3.1,0.1,4.6,0.2l0,0l0,0c0.9,0.1,1.8,0.1,2.7,0.1h0c1.8,0,3.7,0,5.6,0s3.7,0,5.6,0l0,0l0,0
		c0,0.2-0.1,0.4-0.1,0.6l0,0l0,0c-0.9,4.8-1.7,9.6-2.6,14.4l0,0.3l0,0.2l0,0l0,0c-0.2,0.1-0.4,0.1-0.6,0.1c-0.1,0-0.3,0-0.4,0
		l-0.1,0l0,0v0c-13.3,0-26.7,0-40,0h0h0l-0.2,0c-0.4,0-0.8-0.1-1.2-0.1l-0.1,0l0,0l0,0c-0.7-0.2-1.4-0.5-1.9-1l0,0l0,0l-0.2,0l0,0
		l0,0c-1-0.9-1.7-2.1-1.9-3.5l0,0h0c0-25,0-50,0-75h0l0,0c0-0.1,0.1-0.2,0.1-0.3l0,0v0c16.1,0,32.2,0,48.3,0c16.1,0,32.2,0,48.3,0v0
		l0,0C432.3,218.3,432.4,218.4,432.4,218.6L432.4,218.6L432.4,218.6L432.4,218.6z"/>
	<path id="XMLID_118_" class="st2" d="M348.2,202.1c1.2-0.4,2.4-0.1,3.6-0.2c22.2,0,44.4,0,66.6,0c1.3-0.1,2.5,0.7,3.7,1.1
		c1,0.4,2,0.7,3,1.1c0.2,0.1,0.4,0.3,0.5,0.4c0,1.8,0,3.6,0,5.4c0,0.5-0.1,1,0.1,1.4c0.3,0,0.4,0.3,0.6,0.4c0.9,0.4,1.7,1.1,2.5,1.6
		c1.2,0.9,2.5,1.6,3.7,2.5c0.1,0.4,0,0.7-0.1,1c-0.1,0.4,0,0.8-0.1,1.2c-32.2,0-64.4,0-96.6,0c-0.1-0.4,0.1-0.9-0.1-1.3
		c0-0.4-0.1-0.8,0.2-1.1c1.4-1,2.8-1.8,4.1-2.8c0.8-0.5,1.6-1.1,2.4-1.6c0.2-0.3,0.1-0.6,0.1-0.9c0-2,0-3.9,0-5.9
		c0.5-0.6,1.3-0.7,1.9-1C345.6,203.1,346.9,202.6,348.2,202.1 M348.3,202.3c-1.7,0.7-3.5,1.3-5.2,2c-0.2,0-0.4,0.2-0.5,0.4
		c0,0.1,0,0.3,0,0.4c0,1.6,0,3.3,0,4.9c0,0.4,0,0.8,0.1,1.2c-0.2,0.2-0.4,0.4-0.6,0.5c-2,1.3-3.9,2.7-5.8,3.9
		c-0.3,0.2-0.7,0.5-0.6,0.9c-0.1,0.2,0.1,0.4,0.3,0.4c4.3,0,8.5,0,12.8,0c6.4,0,12.7,0,19,0l0.1,0c0.3,0.1,0.6,0,0.9,0
		c11.5,0,23,0,34.5,0c3.6,0,7.3,0,10.9,0c6,0,12,0.1,18,0c0.2,0,0.2-0.2,0.2-0.4c0-0.2,0.1-0.5-0.2-0.7c-1-0.4-1.8-1.1-2.7-1.7
		c-0.3-0.3-0.7-0.4-1-0.8c-0.9-0.5-1.8-1.2-2.7-1.8c-0.2-0.1-0.3-0.3-0.5-0.4c0.1-0.3,0.1-0.6,0.1-0.9c0-1.7,0-3.5,0-5.2
		c0-0.3,0-0.6-0.2-0.8c-1.6-0.6-3.3-1.2-4.9-1.8c-0.5-0.2-1.1-0.4-1.6-0.5c-23.2,0-46.3,0-69.5,0
		C348.8,202.1,348.6,202.3,348.3,202.3z"/>
	<path id="XMLID_121_" class="st2" d="M348.2,202.1c0.5-0.2,1.1-0.2,1.6-0.2c0.4,0,0.9,0,1.3,0c0.2,0,0.4,0,0.6,0l0,0v0
		c7.4,0,14.8,0,22.2,0c14.8,0,29.6,0,44.4,0l0.1,0c1.3,0,2.4,0.7,3.6,1.1l0,0l0,0c1,0.4,2,0.7,3,1.1l0,0h0c0.2,0.1,0.4,0.3,0.5,0.4
		l0,0h0c0,0.6,0,1.2,0,1.8c0,1.2,0,2.4,0,3.6v0v0l0,0.1c0,0.2,0,0.4,0,0.6c0,0.3,0,0.5,0.1,0.7l0,0l0,0c0.3,0,0.4,0.3,0.6,0.4l0,0
		l0,0c0.9,0.4,1.7,1.1,2.5,1.6l0,0l0,0c1.2,0.9,2.5,1.6,3.7,2.5l0,0l0,0c0,0.1,0,0.2,0,0.3c0,0.2,0,0.5-0.1,0.7
		c-0.1,0.2-0.1,0.4-0.1,0.6c0,0.1,0,0.2,0,0.3c0,0.1,0,0.2,0,0.3l0,0v0c-16.1,0-32.2,0-48.3,0s-32.2,0-48.3,0v0l0,0
		c0-0.1,0-0.3,0-0.4l0-0.2c0-0.2,0-0.5-0.1-0.7l0,0l0,0c0-0.2,0-0.3,0-0.5c0-0.2,0-0.4,0.2-0.5l0,0l0,0c1.4-1,2.8-1.8,4.1-2.8l0,0
		l0,0c0.8-0.5,1.6-1.1,2.4-1.6l0,0l0,0c0.1-0.2,0.1-0.4,0.1-0.5c0-0.1,0-0.3,0-0.4c0-2,0-3.9,0-5.9l0,0l0,0c0.5-0.6,1.3-0.7,1.9-1
		l0,0l0,0C345.6,203.1,346.9,202.6,348.2,202.1L348.2,202.1c-1.3,0.5-2.6,1-3.9,1.4h0l0,0c-0.6,0.3-1.4,0.4-1.9,1l0,0v0
		c0,2,0,3.9,0,5.9c0,0.1,0,0.2,0,0.4c0,0.2,0,0.4-0.1,0.5l0,0l0,0c-0.8,0.5-1.6,1.1-2.4,1.6l0,0l0,0c-1.3,1-2.8,1.9-4.1,2.8l0,0
		c-0.2,0.1-0.2,0.3-0.2,0.6c0,0.2,0,0.4,0,0.5l0,0l0,0c0.1,0.2,0.1,0.5,0.1,0.7l0,0.2c0,0.1,0,0.3,0,0.4l0,0h0c16.1,0,32.2,0,48.3,0
		s32.2,0,48.3,0h0l0,0c0-0.1,0-0.2,0-0.3c0-0.1,0-0.2,0-0.3c0-0.2,0-0.4,0.1-0.6c0.1-0.2,0.1-0.5,0.1-0.7c0-0.1,0-0.2,0-0.3l0,0l0,0
		c-1.2-0.9-2.5-1.7-3.7-2.5l0,0h0c-0.8-0.5-1.6-1.2-2.5-1.6l0,0l0,0c-0.2-0.2-0.3-0.4-0.6-0.4l0,0l0,0c-0.1-0.2-0.1-0.5-0.1-0.7
		c0-0.2,0-0.4,0-0.6l0-0.1l0,0h0c0-1.2,0-2.4,0-3.6c0-0.6,0-1.2,0-1.8v0l0,0c-0.1-0.1-0.3-0.3-0.5-0.4l0,0l0,0c-1-0.4-2-0.7-3-1.1
		l0,0l0,0c-1.2-0.4-2.3-1.1-3.6-1.1l-0.1,0c-14.8,0-29.6,0-44.4,0c-7.4,0-14.8,0-22.2,0h0h0c-0.2,0-0.4,0-0.6,0c-0.4,0-0.9,0-1.3,0
		C349.3,201.9,348.7,201.9,348.2,202.1L348.2,202.1z M348.3,202.3L348.3,202.3c-1.7,0.7-3.5,1.3-5.2,2l0,0l0,0
		c-0.2,0-0.4,0.2-0.5,0.4l0,0l0,0c0,0.1,0,0.3,0,0.4c0,0.8,0,1.6,0,2.4c0,0.8,0,1.6,0,2.4v0v0l0,0.2c0,0.1,0,0.2,0,0.3
		c0,0.3,0,0.5,0.1,0.7l0,0l0,0c-0.2,0.2-0.4,0.4-0.6,0.5l0,0c-2,1.3-3.9,2.7-5.8,3.9l0,0l0,0c-0.3,0.2-0.6,0.4-0.6,0.8l0,0.2l0,0
		l0,0l0,0.1l0.1,0.2l0.2,0.1l0.1,0l0,0v0c1,0,2,0,3,0c1.4,0,2.8,0,4.2,0c1.9,0,3.7,0,5.6,0l0,0v0c4.2,0,8.5,0,12.7,0
		c2.1,0,4.2,0,6.3,0h0l0.1,0l0,0l0,0c0.2,0,0.3,0,0.5,0c0.1,0,0.3,0,0.4,0c7.7,0,15.3,0,23,0c3.8,0,7.7,0,11.5,0c1.2,0,2.4,0,3.6,0
		c2.4,0,4.8,0,7.3,0c4.8,0,9.6,0,14.4,0c1.2,0,2.4,0,3.6,0h0l0,0c0.1,0,0.2-0.1,0.2-0.2l0-0.2l0,0l0,0l0-0.1l0-0.2
		c0-0.2,0-0.3-0.2-0.4l0,0l0,0c-1-0.4-1.8-1.1-2.7-1.7l0,0l0,0c-0.3-0.3-0.7-0.4-1-0.8l0,0l0,0c-0.9-0.5-1.8-1.2-2.7-1.8
		c-0.2-0.1-0.3-0.3-0.5-0.4l0,0l0,0c0.1-0.3,0.1-0.6,0.1-0.9c0-0.9,0-1.7,0-2.6c0-0.9,0-1.7,0-2.6h0l0,0l0-0.2
		c0-0.2-0.1-0.4-0.2-0.5l0,0l0,0c-1.6-0.6-3.3-1.2-4.9-1.8l0,0l0,0c-0.5-0.2-1.1-0.4-1.6-0.5l0,0h0c-23.2,0-46.3,0-69.5,0h0l0,0
		C348.8,202.1,348.6,202.3,348.3,202.3L348.3,202.3L348.3,202.3L348.3,202.3L348.3,202.3c0.3-0.1,0.6-0.2,0.9-0.2l0,0v0
		c23.2,0,46.3,0,69.5,0v0l0,0c0.5,0.1,1.1,0.2,1.6,0.5l0,0l0,0c1.6,0.6,3.2,1.2,4.9,1.8l0,0l0,0c0.2,0.1,0.2,0.3,0.2,0.5l0,0.2l0,0
		v0c0,0.9,0,1.7,0,2.6c0,0.9,0,1.7,0,2.6c0,0.3,0,0.6-0.1,0.9l0,0l0,0c0.1,0.1,0.3,0.3,0.5,0.4c0.9,0.6,1.8,1.2,2.7,1.8l0,0l0,0
		c0.2,0.4,0.7,0.5,1,0.8l0,0l0,0c0.9,0.5,1.7,1.2,2.7,1.7l0,0l0,0c0.1,0.1,0.2,0.2,0.2,0.4l0,0.2l0,0.1v0l0,0l0,0.2
		c0,0.1-0.1,0.2-0.2,0.2l0,0v0c-1.2,0-2.4,0-3.6,0c-4.8,0-9.6,0-14.4,0c-2.4,0-4.8,0-7.3,0c-1.2,0-2.4,0-3.6,0c-3.8,0-7.7,0-11.5,0
		c-7.7,0-15.3,0-23,0c-0.1,0-0.3,0-0.4,0c-0.2,0-0.3,0-0.5,0l0,0l-0.1,0l0,0v0c-2.1,0-4.2,0-6.3,0c-4.2,0-8.5,0-12.7,0h0
		c-1.9,0-3.7,0-5.6,0c-1.4,0-2.8,0-4.2,0c-1,0-2,0-3,0h0l0,0l-0.1,0c-0.1,0-0.2-0.1-0.2-0.3l0-0.1l0,0l0,0l0-0.2
		c0-0.4,0.3-0.6,0.6-0.8l0,0c2-1.3,3.9-2.7,5.8-3.9l0,0l0,0c0.2-0.1,0.4-0.3,0.6-0.5l0,0l0,0c-0.1-0.2-0.1-0.5-0.1-0.7
		c0-0.1,0-0.2,0-0.3l0-0.2l0,0l0,0c0-0.8,0-1.6,0-2.4c0-0.8,0-1.6,0-2.4v0c0-0.1,0-0.3,0-0.4l0,0l0,0c0.1-0.2,0.2-0.4,0.5-0.4l0,0
		l0,0C344.8,203.6,346.5,203,348.3,202.3L348.3,202.3L348.3,202.3L348.3,202.3z"/>
	<path id="XMLID_122_" class="st3" d="M342.6,205.1c1.2,0.5,2.5,0.8,3.7,1.3c0.7,0.3,0.9,1,1.1,1.5c-0.3,0.3-0.6,0.5-1,0.7
		c-1.3,0.8-2.5,1.7-3.8,2.5c-0.1-0.4-0.1-0.8-0.1-1.2C342.6,208.4,342.6,206.8,342.6,205.1z"/>
	<path id="XMLID_123_" class="st3" d="M342.6,205.1L342.6,205.1c1.2,0.5,2.5,0.8,3.7,1.3c0.6,0.3,0.9,1,1.1,1.5l0,0l0,0
		c-0.3,0.3-0.6,0.5-1,0.7h0l0,0c-1.3,0.8-2.5,1.7-3.8,2.5l0,0l0,0c-0.1-0.2-0.1-0.5-0.1-0.7c0-0.1,0-0.2,0-0.3l0-0.2l0,0l0,0
		C342.6,208.4,342.6,206.8,342.6,205.1L342.6,205.1L342.6,205.1L342.6,205.1L342.6,205.1c0,1.6,0,3.3,0,4.9v0v0l0,0.2
		c0,0.1,0,0.2,0,0.3c0,0.3,0,0.5,0.1,0.7l0,0l0,0c1.2-0.9,2.5-1.7,3.8-2.5l0,0l0,0c0.3-0.2,0.7-0.4,1-0.7l0,0l0,0
		c-0.3-0.6-0.5-1.3-1.1-1.5C345,205.9,343.8,205.6,342.6,205.1L342.6,205.1L342.6,205.1L342.6,205.1z"/>
	<path id="XMLID_124_" class="st3" d="M421.7,206.4c1.2-0.5,2.5-0.8,3.7-1.3c0,1.7,0,3.5,0,5.2c0,0.3,0,0.6-0.1,0.9
		c-1.1-0.7-2.1-1.4-3.2-2.1c-0.5-0.4-1.1-0.7-1.6-1.1C420.8,207.4,421,206.7,421.7,206.4z"/>
	<path id="XMLID_126_" class="st3" d="M421.7,206.4L421.7,206.4c1.2-0.5,2.5-0.8,3.7-1.3l0,0l0,0c0,0.9,0,1.7,0,2.6
		c0,0.9,0,1.7,0,2.6c0,0.3,0,0.6-0.1,0.9l0,0l0,0c-1.1-0.7-2.1-1.4-3.2-2.1l0,0l0,0c-0.5-0.4-1.1-0.7-1.5-1.1l0,0l0,0
		C420.8,207.4,421,206.7,421.7,206.4L421.7,206.4L421.7,206.4c-0.7,0.3-0.9,1-1.2,1.5l0,0l0,0c0.5,0.5,1,0.7,1.6,1.1h0l0,0
		c1.1,0.7,2.1,1.4,3.2,2.1l0,0l0,0c0.1-0.3,0.1-0.6,0.1-0.9c0-0.9,0-1.7,0-2.6c0-0.9,0-1.7,0-2.6l0,0l0,0
		C424.1,205.6,422.9,205.9,421.7,206.4L421.7,206.4z"/>
	<path id="XMLID_127_" class="st4" d="M363.3,207c1.5-0.4,3.2,1,3,2.5c0,1.5-1.6,2.8-3.1,2.4c-0.6-0.2-1.2-0.5-1.5-1
		c-0.5-0.7-0.6-1.7-0.2-2.5C361.8,207.7,362.6,207.1,363.3,207z"/>
	<path id="XMLID_128_" class="st4" d="M363.3,207L363.3,207c0.2,0,0.3-0.1,0.5-0.1c0.6,0,1.3,0.3,1.8,0.7c0.5,0.4,0.8,1.1,0.8,1.7
		l0,0.2v0v0l0,0c0,0.7-0.3,1.3-0.8,1.7c-0.5,0.4-1.1,0.7-1.8,0.7c-0.2,0-0.3,0-0.5-0.1l0,0l0,0c-0.6-0.2-1.2-0.5-1.5-1l0,0l0,0
		c-0.3-0.4-0.4-0.9-0.4-1.4c0-0.4,0.1-0.7,0.2-1l0,0l0,0C361.8,207.7,362.6,207.2,363.3,207L363.3,207L363.3,207
		c-0.8,0.2-1.5,0.7-1.8,1.5l0,0l0,0c-0.2,0.3-0.2,0.7-0.2,1c0,0.5,0.2,1,0.4,1.4l0,0v0c0.4,0.5,0.9,0.8,1.5,1l0,0l0,0
		c0.2,0,0.3,0.1,0.5,0.1c1.3,0,2.6-1.1,2.6-2.5l0,0h0l0,0l0-0.2c0-1.3-1.3-2.4-2.6-2.4C363.7,206.9,363.5,206.9,363.3,207L363.3,207
		z"/>
	<path id="XMLID_132_" class="st4" d="M402.1,207.8c0.6-0.7,1.6-1.1,2.5-0.8c0.7,0.2,1.4,0.7,1.7,1.3c0.6,1.2,0.1,2.7-1,3.4
		c-1,0.6-2.3,0.3-3.1-0.5C401.4,210.2,401.3,208.7,402.1,207.8z"/>
	<path id="XMLID_133_" class="st4" d="M402.1,207.8L402.1,207.8c0.5-0.5,1.2-0.9,2-0.9c0.2,0,0.4,0,0.6,0.1l0,0l0,0
		c0.7,0.2,1.4,0.7,1.7,1.3l0,0l0,0c0.2,0.3,0.3,0.7,0.3,1.1c0,0.9-0.5,1.8-1.3,2.2l0,0c-0.4,0.2-0.8,0.3-1.2,0.3
		c-0.7,0-1.4-0.3-1.9-0.8l0,0l0,0c-0.4-0.5-0.6-1.1-0.6-1.7C401.6,208.8,401.8,208.3,402.1,207.8L402.1,207.8L402.1,207.8
		L402.1,207.8L402.1,207.8c-0.4,0.4-0.6,1-0.6,1.6c0,0.6,0.2,1.3,0.6,1.7h0l0,0c0.5,0.5,1.2,0.8,1.9,0.8c0.4,0,0.8-0.1,1.2-0.3l0,0
		l0,0c0.8-0.4,1.3-1.3,1.3-2.3c0-0.4-0.1-0.8-0.3-1.1l0,0l0,0c-0.3-0.7-1-1.1-1.7-1.3l0,0c-0.2,0-0.4-0.1-0.6-0.1
		C403.4,206.9,402.6,207.3,402.1,207.8L402.1,207.8L402.1,207.8L402.1,207.8z"/>
	<path id="XMLID_134_" class="st5" d="M346.4,208.7c0.3-0.2,0.7-0.4,1-0.7l0.1,0.1c0.1,0.7,0,1.4,0.1,2.1c0,2.1,0,4.3-0.1,6.4
		c-4,0-7.9,0-11.9,0c-0.1-0.4,0.3-0.7,0.6-0.9c2-1.3,3.9-2.7,5.8-3.9c0.2-0.1,0.4-0.3,0.6-0.5C343.9,210.3,345.2,209.5,346.4,208.7z
		"/>
	<path id="XMLID_135_" class="st5" d="M346.4,208.7L346.4,208.7c0.3-0.2,0.7-0.4,1-0.7l0,0l0,0l0.1,0.1l0,0l0,0c0,0.3,0.1,0.6,0.1,1
		c0,0.2,0,0.5,0,0.7c0,0.1,0,0.3,0,0.4l0,0l0,0c0,0.5,0,1,0,1.5c0,0.7,0,1.5,0,2.2c0,0.9,0,1.8,0,2.6l0,0v0c-2.6,0-5.3,0-7.9,0
		c-1.3,0-2.6,0-4,0v0l0,0l0-0.2c0-0.4,0.3-0.6,0.6-0.8l0,0h0c2-1.3,3.9-2.7,5.8-3.9l0,0l0,0c0.2-0.1,0.4-0.3,0.6-0.5l0,0l0,0
		C343.9,210.4,345.2,209.5,346.4,208.7L346.4,208.7L346.4,208.7L346.4,208.7L346.4,208.7c-1.3,0.8-2.5,1.7-3.8,2.5l0,0l0,0
		c-0.2,0.2-0.4,0.4-0.6,0.5v0h0c-2,1.3-3.9,2.7-5.8,3.9l0,0l0,0c-0.3,0.2-0.6,0.4-0.6,0.8l0,0.2l0,0h0c1.3,0,2.6,0,4,0
		c2.6,0,5.3,0,7.9,0h0l0,0c0-0.9,0-1.8,0-2.6c0-0.7,0-1.5,0-2.2c0-0.5,0-1,0-1.5v0v0c0-0.1,0-0.3,0-0.4c0-0.2,0-0.5,0-0.7
		c0-0.3,0-0.7-0.1-1l0,0l-0.1-0.1l0,0C347.1,208.2,346.8,208.5,346.4,208.7L346.4,208.7L346.4,208.7L346.4,208.7z"/>
	<path id="XMLID_140_" class="st5" d="M420.4,208.4c0-0.2,0-0.3,0.1-0.5c0.5,0.5,1,0.7,1.6,1.1c1.1,0.7,2.1,1.4,3.2,2.1
		c0.1,0.1,0.3,0.3,0.5,0.4c0.9,0.6,1.8,1.2,2.7,1.8c0.2,0.4,0.7,0.5,1,0.8c0.9,0.5,1.7,1.2,2.7,1.7c0.2,0.1,0.1,0.4,0.2,0.7
		c-4,0-7.9,0-11.9,0c-0.1-0.5,0-1.1,0-1.6C420.4,212.8,420.4,210.6,420.4,208.4z"/>
	<path id="XMLID_141_" class="st5" d="M420.4,208.4L420.4,208.4c0-0.2,0-0.3,0.1-0.5l0,0l0,0c0.5,0.5,1,0.7,1.6,1.1h0l0,0
		c1.1,0.7,2.1,1.4,3.2,2.1l0,0l0,0c0.1,0.1,0.3,0.3,0.5,0.4c0.9,0.6,1.8,1.2,2.7,1.8l0,0l0,0c0.2,0.4,0.7,0.5,1,0.8l0,0l0,0
		c0.9,0.5,1.7,1.2,2.7,1.7l0,0l0,0c0.1,0.1,0.2,0.2,0.2,0.4l0,0.2l0,0.1l0,0l0,0c-0.9,0-1.8,0-2.7,0c-1.6,0-3.2,0-4.8,0
		c-1.5,0-2.9,0-4.4,0l0,0l0,0c0-0.3,0-0.5,0-0.8c0-0.2,0-0.4,0-0.5l0-0.3l0,0h0v0c0-1.7,0-3.5,0-5.2
		C420.4,209.3,420.4,208.8,420.4,208.4L420.4,208.4L420.4,208.4c0,0.4,0,0.9,0,1.3c0,1.7,0,3.5,0,5.2v0v0l0,0.3c0,0.2,0,0.4,0,0.5
		c0,0.3,0,0.5,0,0.8l0,0h0c1.5,0,2.9,0,4.4,0c1.6,0,3.2,0,4.8,0c0.9,0,1.8,0,2.7,0h0l0,0l0-0.1l0-0.2c0-0.2,0-0.3-0.2-0.4l0,0l0,0
		c-1-0.4-1.8-1.1-2.7-1.7l0,0l0,0c-0.3-0.3-0.7-0.4-1-0.8l0,0l0,0c-0.9-0.5-1.8-1.2-2.7-1.8c-0.2-0.1-0.3-0.3-0.5-0.4l0,0l0,0
		c-1.1-0.7-2.1-1.4-3.2-2.1l0,0l0,0c-0.5-0.4-1.1-0.7-1.5-1.1l0,0l0,0C420.4,208.1,420.4,208.2,420.4,208.4L420.4,208.4z"/>
	
		<radialGradient id="XMLID_4_" cx="0" cy="0" r="1" gradientTransform="matrix(65.0317 0 0 65.0317 383.5525 254.6205)" gradientUnits="userSpaceOnUse">
		<stop  offset="0" style="stop-color:#F29405"/>
		<stop  offset="0.5962" style="stop-color:#F29405"/>
		<stop  offset="0.7362" style="stop-color:#F7D01E"/>
		<stop  offset="1" style="stop-color:#FDCB06"/>
	</radialGradient>
	<path id="XMLID_145_" class="st6" d="M432.3,216.5c-4,0-7.9,0-11.9,0c-0.1-0.5,0-1.1,0-1.6c0-2.2,0-4.4,0-6.5c0-0.2,0-0.3,0.1-0.5
		c0.3-0.6,0.5-1.3,1.2-1.5c1.2-0.5,2.5-0.8,3.7-1.3c0-0.3,0-0.6-0.2-0.8c-1.6-0.6-3.3-1.2-4.9-1.8c-0.5-0.2-1.1-0.4-1.6-0.5
		c-23.2,0-46.3,0-69.5,0c-0.3,0-0.6,0.2-0.9,0.2c-1.7,0.7-3.5,1.3-5.2,2c-0.2,0-0.4,0.2-0.5,0.4c0,0.1,0,0.3,0,0.4
		c1.2,0.5,2.5,0.8,3.7,1.3c0.7,0.3,0.9,1,1.1,1.5l0.1,0.1c0.1,0.7,0,1.4,0.1,2.1c0,2.1,0,4.3-0.1,6.4c-4,0-7.9,0-11.9,0
		c-0.1,0.2,0.1,0.4,0.3,0.4c4.3,0,8.5,0,12.8,0c6.4,0,12.7,0,19,0l0.1,0c0.3,0.1,0.6,0,0.9,0c11.5,0,23,0,34.5,0c3.6,0,7.3,0,10.9,0
		c6,0,12,0.1,18,0C432.3,216.9,432.4,216.8,432.3,216.5z M361.5,208.4c0.3-0.8,1-1.3,1.8-1.5c1.5-0.4,3.2,1,3,2.5
		c0,1.5-1.6,2.8-3.1,2.4c-0.6-0.2-1.2-0.5-1.5-1C361.3,210.2,361.2,209.2,361.5,208.4z M402.1,207.8c0.6-0.7,1.6-1.1,2.5-0.8
		c0.7,0.2,1.4,0.7,1.7,1.3c0.6,1.2,0.1,2.7-1,3.4c-1,0.6-2.3,0.3-3.1-0.5C401.4,210.2,401.3,208.7,402.1,207.8z"/>
	<path id="XMLID_149_" class="st1" d="M432.3,216.5L432.3,216.5c-0.9,0-1.8,0-2.7,0c-1.6,0-3.2,0-4.8,0c-1.5,0-2.9,0-4.4,0l0,0l0,0
		c0-0.3,0-0.5,0-0.8c0-0.2,0-0.4,0-0.5l0-0.3l0,0h0c0-1.7,0-3.5,0-5.2c0-0.4,0-0.9,0-1.3c0-0.2,0-0.3,0.1-0.5l0,0l0,0
		c0.3-0.6,0.5-1.3,1.2-1.5c1.2-0.5,2.5-0.8,3.7-1.3l0,0l0,0l0-0.2c0-0.2-0.1-0.4-0.2-0.5l0,0l0,0c-1.6-0.6-3.3-1.2-4.9-1.8l0,0l0,0
		c-0.5-0.2-1.1-0.4-1.6-0.5h0h0c-23.2,0-46.3,0-69.5,0h0h0c-0.3,0-0.6,0.2-0.9,0.2l0,0l0,0c-1.7,0.7-3.5,1.3-5.2,2l0,0l0,0
		c-0.2,0-0.4,0.2-0.5,0.4l0,0l0,0c0,0.1,0,0.3,0,0.4v0l0,0c1.2,0.5,2.5,0.8,3.7,1.3c0.6,0.3,0.9,1,1.1,1.5l0,0l0.1,0.1l0,0l0,0
		c0,0.3,0.1,0.6,0.1,1c0,0.2,0,0.5,0,0.7c0,0.1,0,0.3,0,0.4l0,0l0,0c0,0.5,0,1,0,1.5c0,0.7,0,1.5,0,2.2c0,0.9,0,1.8,0,2.6l0,0v0
		c-2.6,0-5.3,0-7.9,0c-1.3,0-2.6,0-4,0l0,0l0,0l0,0.1l0.1,0.2l0.2,0.1l0.1,0l0,0l0,0c1,0,2,0,3,0c1.4,0,2.8,0,4.2,0
		c1.9,0,3.7,0,5.6,0l0,0v0c4.2,0,8.5,0,12.7,0c2.1,0,4.2,0,6.3,0h0l0.1,0l0,0l0,0c0.2,0,0.3,0,0.5,0c0.1,0,0.3,0,0.4,0
		c7.7,0,15.3,0,23,0c3.8,0,7.7,0,11.5,0c1.2,0,2.4,0,3.6,0c2.4,0,4.8,0,7.3,0c4.8,0,9.6,0,14.4,0c1.2,0,2.4,0,3.6,0h0l0,0
		c0.1,0,0.2-0.1,0.2-0.2L432.3,216.5L432.3,216.5L432.3,216.5L432.3,216.5L432.3,216.5l0,0.2c0,0.1-0.1,0.2-0.2,0.2l0,0l0,0
		c-1.2,0-2.4,0-3.6,0c-4.8,0-9.6,0-14.4,0c-2.4,0-4.8,0-7.3,0c-1.2,0-2.4,0-3.6,0c-3.8,0-7.7,0-11.5,0c-7.7,0-15.3,0-23,0
		c-0.1,0-0.3,0-0.4,0c-0.2,0-0.3,0-0.5,0l0,0l-0.1,0l0,0l0,0c-2.1,0-4.2,0-6.3,0c-4.2,0-8.5,0-12.7,0h0c-1.9,0-3.7,0-5.6,0
		c-1.4,0-2.8,0-4.2,0c-1,0-2,0-3,0h0l0,0l-0.1,0c-0.1,0-0.2-0.1-0.2-0.3l0-0.1l0,0v0c1.3,0,2.6,0,4,0c2.6,0,5.3,0,7.9,0h0l0,0
		c0-0.9,0-1.8,0-2.6c0-0.7,0-1.5,0-2.2c0-0.5,0-1,0-1.5v0v0c0-0.1,0-0.3,0-0.4c0-0.2,0-0.5,0-0.7c0-0.3,0-0.7-0.1-1l0,0l-0.1-0.1
		l0,0l0,0c-0.3-0.6-0.5-1.3-1.1-1.5c-1.2-0.5-2.5-0.8-3.7-1.3l0,0h0c0-0.1,0-0.3,0-0.4l0,0l0,0c0.1-0.2,0.2-0.4,0.5-0.4l0,0l0,0
		c1.7-0.7,3.5-1.3,5.2-2l0,0l0,0c0.3-0.1,0.6-0.2,0.9-0.2l0,0v0c23.2,0,46.3,0,69.5,0v0l0,0c0.5,0.1,1.1,0.2,1.6,0.5l0,0l0,0
		c1.6,0.6,3.2,1.2,4.9,1.8l0,0l0,0c0.2,0.1,0.2,0.3,0.2,0.5l0,0.2l0,0l0,0c-1.2,0.5-2.5,0.8-3.7,1.3c-0.7,0.3-0.9,1-1.2,1.5l0,0l0,0
		c-0.1,0.2-0.1,0.3-0.1,0.5c0,0.4,0,0.9,0,1.3c0,1.7,0,3.5,0,5.2v0l0,0.3c0,0.2,0,0.4,0,0.5c0,0.3,0,0.5,0,0.8l0,0h0
		c1.5,0,2.9,0,4.4,0c1.6,0,3.2,0,4.8,0C430.5,216.6,431.4,216.6,432.3,216.5L432.3,216.5L432.3,216.5L432.3,216.5z M361.5,208.4
		L361.5,208.4c0.3-0.8,1-1.3,1.8-1.4c0.2,0,0.3-0.1,0.5-0.1c0.6,0,1.3,0.3,1.8,0.7c0.5,0.4,0.8,1.1,0.8,1.7l0,0.2v0v0l0,0
		c0,0.7-0.3,1.3-0.8,1.7c-0.5,0.4-1.1,0.7-1.8,0.7c-0.2,0-0.3,0-0.5-0.1l0,0l0,0c-0.6-0.2-1.2-0.5-1.5-1l0,0l0,0
		c-0.3-0.4-0.4-0.9-0.4-1.4C361.3,209.1,361.4,208.8,361.5,208.4L361.5,208.4L361.5,208.4L361.5,208.4L361.5,208.4
		c-0.2,0.3-0.2,0.7-0.2,1c0,0.5,0.2,1,0.4,1.4l0,0v0c0.4,0.5,0.9,0.8,1.5,1l0,0l0,0c0.2,0,0.3,0.1,0.5,0.1c1.3,0,2.6-1.1,2.6-2.5
		l0,0h0l0,0l0-0.2c0-1.3-1.3-2.4-2.6-2.4c-0.2,0-0.3,0-0.5,0.1C362.5,207.1,361.8,207.7,361.5,208.4L361.5,208.4L361.5,208.4
		L361.5,208.4z M402.1,207.8L402.1,207.8c0.5-0.5,1.2-0.9,2-0.9c0.2,0,0.4,0,0.6,0.1l0,0l0,0c0.7,0.2,1.4,0.7,1.7,1.3l0,0l0,0
		c0.2,0.3,0.3,0.7,0.3,1.1c0,0.9-0.5,1.8-1.3,2.2l0,0c-0.4,0.2-0.8,0.3-1.2,0.3c-0.7,0-1.4-0.3-1.9-0.8l0,0l0,0
		c-0.4-0.5-0.6-1.1-0.6-1.7C401.6,208.8,401.8,208.3,402.1,207.8L402.1,207.8L402.1,207.8L402.1,207.8L402.1,207.8
		c-0.4,0.4-0.6,1-0.6,1.6c0,0.6,0.2,1.3,0.6,1.7h0l0,0c0.5,0.5,1.2,0.8,1.9,0.8c0.4,0,0.8-0.1,1.2-0.3l0,0l0,0
		c0.8-0.4,1.3-1.3,1.3-2.3c0-0.4-0.1-0.8-0.3-1.1l0,0l0,0c-0.3-0.7-1-1.1-1.7-1.3l0,0c-0.2,0-0.4-0.1-0.6-0.1
		C403.4,206.9,402.6,207.3,402.1,207.8L402.1,207.8L402.1,207.8L402.1,207.8z"/>
	
		<linearGradient id="XMLID_5_" gradientUnits="userSpaceOnUse" x1="1.286582e-006" y1="-2.220338e-006" x2="1" y2="-2.220338e-006" gradientTransform="matrix(2.270314e-002 3.7861 -3.7861 2.270314e-002 406.2166 221.04)">
		<stop  offset="0" style="stop-color:#FADA1C"/>
		<stop  offset="1" style="stop-color:#FDCB06"/>
	</linearGradient>
	<path id="XMLID_150_" class="st7" d="M405.6,222.5c0.2,0-1-1.1-0.8-1.2c0.2,0,1-0.6,2-0.1c1,0.5,0.8,1.7,0.6,2.2
		c-0.1,0.5-0.5,0.9-0.8,1.2c-0.1,0.1-0.5,0.3-0.7,0.3c0.1-0.7-0.3-0.8-0.3-1.5L405.6,222.5z"/>
	<path id="XMLID_151_" class="st1" d="M405.6,222.5L405.6,222.5L405.6,222.5L405.6,222.5L405.6,222.5c0,0,0-0.1-0.1-0.2
		c-0.1-0.1-0.3-0.3-0.4-0.5c-0.1-0.2-0.3-0.3-0.3-0.4l0,0l0,0l0,0l0,0c0.2,0,0.6-0.3,1.2-0.3c0.2,0,0.5,0.1,0.8,0.2
		c0.6,0.3,0.7,0.9,0.7,1.4c0,0.3-0.1,0.6-0.1,0.8c-0.1,0.5-0.5,0.9-0.7,1.2l0,0l0,0c-0.1,0.1-0.5,0.3-0.7,0.3l0,0l0,0l0,0l0-0.2
		c0-0.5-0.3-0.6-0.3-1.2v0L405.6,222.5L405.6,222.5L405.6,222.5L405.6,222.5L405.6,222.5l0.2,0.9l0,0l0,0c0,0.6,0.3,0.8,0.3,1.2
		l0,0.2l0,0l0,0l0,0c0.2,0,0.5-0.2,0.7-0.3l0,0l0,0c0.3-0.3,0.6-0.6,0.8-1.2c0-0.2,0.1-0.5,0.1-0.8c0-0.5-0.2-1.1-0.8-1.4
		c-0.3-0.2-0.6-0.2-0.8-0.2c-0.6,0-1,0.3-1.2,0.3l0,0l0,0l0,0l0,0c0,0.1,0.2,0.4,0.4,0.6c0.1,0.1,0.2,0.2,0.3,0.3
		C405.6,222.4,405.6,222.5,405.6,222.5L405.6,222.5L405.6,222.5L405.6,222.5L405.6,222.5L405.6,222.5z"/>
	
		<linearGradient id="XMLID_6_" gradientUnits="userSpaceOnUse" x1="1.739902e-006" y1="2.045556e-006" x2="1" y2="2.045556e-006" gradientTransform="matrix(-2.271675e-002 3.786 3.786 2.271675e-002 361.6837 220.8586)">
		<stop  offset="0" style="stop-color:#FADA1C"/>
		<stop  offset="1" style="stop-color:#FDCB06"/>
	</linearGradient>
	<path id="XMLID_152_" class="st8" d="M362.1,223.3c0,0.7-0.4,0.8-0.3,1.5c-0.2,0-0.5-0.2-0.7-0.3c-0.3-0.3-0.6-0.6-0.8-1.2
		c-0.1-0.5-0.4-1.7,0.6-2.2c1-0.5,1.8,0.1,2,0.1c0.2,0.1-1,1.2-0.8,1.2L362.1,223.3z"/>
	<path id="XMLID_153_" class="st1" d="M362.1,223.3L362.1,223.3c0,0.6-0.3,0.7-0.3,1.2l0,0.2l0,0l0,0l0,0c-0.2,0-0.5-0.2-0.7-0.3
		l0,0l0,0c-0.3-0.3-0.6-0.6-0.7-1.2c0-0.2-0.1-0.5-0.1-0.8c0-0.5,0.1-1.1,0.7-1.4c0.3-0.2,0.6-0.2,0.8-0.2c0.6,0,1,0.3,1.2,0.3l0,0
		l0,0l0,0l0,0c0,0.1-0.2,0.4-0.4,0.6c-0.1,0.1-0.2,0.2-0.3,0.3c-0.1,0.1-0.1,0.2-0.1,0.2l0,0l0,0l0,0l0,0l0,0L362.1,223.3
		L362.1,223.3L362.1,223.3L362.1,223.3l0.2-0.9l0,0l0,0l0,0c0,0,0-0.1,0.1-0.2c0.1-0.1,0.3-0.3,0.4-0.5c0.1-0.2,0.3-0.3,0.3-0.4l0,0
		l0,0l0,0l0,0c-0.2,0-0.6-0.3-1.2-0.3c-0.3,0-0.5,0.1-0.8,0.2c-0.6,0.3-0.8,0.9-0.8,1.4c0,0.3,0.1,0.6,0.1,0.8
		c0.1,0.5,0.5,0.9,0.8,1.2l0,0l0,0c0.1,0.1,0.5,0.3,0.7,0.3l0,0l0,0l0,0l0-0.2C361.8,224,362.1,223.9,362.1,223.3L362.1,223.3
		L362.1,223.3L362.1,223.3z"/>
	<path id="XMLID_154_" class="st4" d="M403.8,231.2c0.2-0.2,0.3-0.2,0.6-0.2c-1.6,3.5-3.5,7.1-6.4,9.8c-0.3,0.3-0.6,0.5-1,0.8
		c-0.3,0.2-0.6,0.5-1,0.7c-0.3,0.2-0.6,0.4-0.9,0.7c-0.8,0.4-1.5,1-2.3,1.3c-1.6,0.7-3.3,1.3-5,1.6c-0.7,0.1-1.3,0.3-2,0.3
		c-0.8,0.2-1.7,0.1-2.6,0.1c-0.5,0.1-0.9-0.2-1.4-0.1c-0.4-0.1-0.8-0.1-1.2-0.2c-0.4-0.1-0.8-0.2-1.2-0.3
		c-6.2-1.9-12.4-6.7-14.1-13.1c-0.1-0.4-0.1-0.9-0.1-1.3c0.2,0.4,0.4,0.8,0.6,1.1c2.5,5.5,7.6,9.9,13.5,11.2c0.5,0.2,1,0.1,1.5,0.3
		c0.4,0,0.8,0,1.2,0.1c1.4,0,2.8,0,4.2,0c0.2,0,0.4-0.1,0.6-0.1c2.3-0.1,4.6-0.7,6.8-1.7c0.4-0.2,0.8-0.4,1.3-0.6
		c0.4-0.2,0.7-0.4,1.1-0.6c0.3-0.2,0.7-0.4,1-0.7c2.5-2,4.7-4.6,6.2-7.6C403.3,232.2,403.6,231.7,403.8,231.2z"/>
	<path id="XMLID_155_" class="st4" d="M403.8,231.2L403.8,231.2c0.2-0.2,0.3-0.2,0.6-0.2v0l0,0c-1.6,3.5-3.5,7.1-6.4,9.8
		c-0.3,0.3-0.6,0.5-1,0.8c-0.3,0.2-0.6,0.5-1,0.7c-0.3,0.2-0.6,0.4-0.9,0.7l0,0l0,0c-0.8,0.4-1.5,1-2.3,1.3l0,0l0,0
		c-1.6,0.7-3.2,1.3-4.9,1.6l0,0l0,0c-0.7,0.1-1.3,0.3-2,0.3h0l0,0c-0.4,0.1-0.8,0.1-1.1,0.1c-0.4,0-0.7,0-1.1,0c-0.1,0-0.3,0-0.4,0
		h0l0,0l-0.2,0c-0.4,0-0.7-0.2-1-0.2l-0.1,0l0,0l0,0c-0.4-0.1-0.8-0.1-1.2-0.2c-0.4-0.1-0.8-0.2-1.2-0.3l0,0l0,0
		c-6.2-1.9-12.4-6.7-14.1-13.1l0,0l0,0c-0.1-0.4-0.1-0.9-0.1-1.3h0l0,0c0.2,0.4,0.4,0.8,0.6,1.1l0,0l0,0c2.5,5.5,7.6,9.9,13.5,11.2
		l0,0l0,0c0.5,0.2,1,0.1,1.5,0.3l0,0h0l0.2,0c0.3,0,0.7,0,1,0.1l0,0h0c0.7,0,1.4,0,2.1,0c0.7,0,1.4,0,2.1,0v0l0,0l0,0
		c0.2,0,0.3-0.1,0.5-0.1l0,0l0,0c2.3-0.1,4.6-0.7,6.8-1.7c0.4-0.2,0.8-0.4,1.3-0.6c0.4-0.2,0.7-0.4,1.1-0.6c0.3-0.2,0.7-0.4,1-0.7
		c2.5-2,4.7-4.6,6.2-7.6C403.3,232.2,403.6,231.7,403.8,231.2L403.8,231.2L403.8,231.2L403.8,231.2L403.8,231.2
		c-0.2,0.4-0.5,0.9-0.8,1.5c-1.5,3-3.7,5.6-6.2,7.5c-0.3,0.2-0.6,0.5-1,0.7c-0.3,0.2-0.7,0.4-1.1,0.6c-0.4,0.2-0.8,0.4-1.3,0.6
		c-2.1,1-4.4,1.6-6.8,1.7h0l0,0c-0.2,0-0.3,0.1-0.5,0.1l0,0h0h0c-0.7,0-1.4,0-2.1,0c-0.7,0-1.4,0-2.1,0l0,0l0,0
		c-0.3-0.1-0.7-0.1-1-0.1l-0.2,0v0l0,0c-0.5-0.2-1-0.1-1.5-0.3l0,0l0,0c-5.9-1.3-11-5.7-13.5-11.2l0,0l0,0c-0.2-0.4-0.4-0.8-0.6-1.1
		l0,0c0,0.4,0,0.9,0.1,1.3l0,0v0c1.8,6.4,7.9,11.2,14.1,13.1h0h0c0.4,0.1,0.8,0.2,1.2,0.3c0.4,0.1,0.8,0.1,1.2,0.2l0,0l0,0l0.1,0
		c0.4,0,0.7,0.2,1,0.2l0.2,0l0,0l0,0c0.1,0,0.3,0,0.4,0c0.4,0,0.7,0,1.1,0c0.4,0,0.8,0,1.1-0.1l0,0l0,0c0.7,0,1.4-0.2,2-0.3h0l0,0
		c1.7-0.4,3.4-0.9,5-1.6l0,0l0,0c0.9-0.3,1.5-0.8,2.3-1.3l0,0l0,0c0.3-0.2,0.6-0.4,0.9-0.7c0.3-0.2,0.6-0.5,1-0.7
		c0.3-0.2,0.7-0.5,1-0.8c2.9-2.8,4.8-6.3,6.4-9.8l0,0h0C404.2,231.1,404,231.1,403.8,231.2L403.8,231.2L403.8,231.2L403.8,231.2z"/>
	<path id="XMLID_156_" class="st9" d="M401.6,243.3c4-2.4,8.7-3.5,13.4-3.7c1.5-0.1,3-0.1,4.5,0.1c1,0.2,2,0.5,2.8,1.2
		c-0.4,0-0.8-0.1-1.2-0.2c-1.1-0.2-2.3-0.1-3.4-0.2c-3.3,0-6.6,0.3-9.8,1.2c-1.7,0.5-3.3,1.1-4.8,2c-2.6,1.4-5,3.3-6.9,5.6
		c-3.4,3.9-5.4,8.9-6.4,13.9c-0.5,2.7-1,5.4-1.4,8.1c-0.7,0.1-1.4,0-2.1,0c-3,0-6,0-9-0.1c-0.6,0-1.3-0.1-1.9-0.1
		c-5.4,0-10.9,0-16.3,0l0.1,0c4-0.4,8.1-0.9,12.1-1.3c5.1,0,10.2,0,15.4,0c0.2,0,0.4,0.1,0.5-0.2c0.4-2.2,0.8-4.4,1.3-6.6
		c0.6-3.1,1.5-6.1,2.9-8.9C393.7,249.7,397.3,245.9,401.6,243.3z"/>
	<path id="XMLID_157_" class="st9" d="M401.6,243.3L401.6,243.3c4-2.4,8.7-3.5,13.4-3.7c0.6-0.1,1.2-0.1,1.8-0.1
		c0.9,0,1.8,0.1,2.7,0.2l0,0l0,0c1,0.2,2,0.5,2.8,1.2l0,0l0,0l-0.1,0c-0.4,0-0.7-0.2-1.1-0.2l0,0l0,0c-0.7-0.1-1.5-0.2-2.3-0.2
		c-0.2,0-0.3,0-0.5,0c-0.2,0-0.5,0-0.7,0c-3.3,0-6.6,0.3-9.8,1.2c-1.7,0.5-3.3,1.1-4.8,2c-2.6,1.4-5,3.3-6.9,5.6
		c-3.4,3.9-5.4,8.9-6.4,13.9c-0.5,2.7-1,5.4-1.4,8.1l0,0l0,0c-0.3,0-0.6,0-0.9,0c-0.4,0-0.7,0-1.1,0c-3,0-6,0-9-0.1h0h0l-0.2,0
		c-0.5,0-1-0.1-1.5-0.1l-0.2,0l0,0v0c-1.4,0-2.7,0-4.1,0c-4.1,0-8.2,0-12.2,0v0l0,0l0.1,0l0,0l0,0c4-0.4,8.1-0.9,12.1-1.3l0,0v0
		c2.2,0,4.4,0,6.5,0c2.9,0,5.9,0,8.8,0h0l0,0l0.1,0l0.1,0l0.2,0l0.1-0.2l0,0l0,0c0.4-2.2,0.8-4.4,1.3-6.6c0.6-3.1,1.5-6.1,2.9-8.9
		C393.7,249.7,397.3,245.9,401.6,243.3L401.6,243.3L401.6,243.3c-4.3,2.5-7.9,6.3-10.1,10.8c-1.4,2.8-2.4,5.8-2.9,8.9
		c-0.4,2.2-0.8,4.4-1.3,6.6l0,0v0l-0.1,0.1l-0.2,0l-0.1,0l-0.1,0l0,0l0,0c-2.9,0-5.9,0-8.8,0c-2.2,0-4.4,0-6.5,0h0h0
		c-4,0.4-8.1,0.9-12.1,1.3l0,0l-0.1,0l0,0c4.1,0,8.2,0,12.2,0c1.4,0,2.7,0,4.1,0h0h0l0.2,0c0.5,0,1,0.1,1.5,0.1l0.2,0l0,0l0,0
		c3,0,6,0,9,0.1c0.4,0,0.7,0,1.1,0c0.3,0,0.6,0,0.9,0l0,0l0,0c0.4-2.7,1-5.4,1.4-8.1c1-5,3-10,6.4-13.9c1.9-2.3,4.3-4.2,6.9-5.6
		c1.5-0.9,3.2-1.5,4.8-2c3.2-0.9,6.5-1.2,9.8-1.2c0.2,0,0.5,0,0.7,0c0.2,0,0.3,0,0.5,0c0.8,0,1.5,0,2.3,0.2h0l0,0
		c0.4,0.1,0.7,0.2,1.1,0.2l0.1,0l0,0l0,0c-0.8-0.7-1.8-0.9-2.8-1.2l0,0h0c-0.9-0.1-1.8-0.2-2.7-0.2c-0.6,0-1.2,0-1.8,0.1
		C410.3,239.8,405.6,241,401.6,243.3L401.6,243.3z"/>
	<path id="XMLID_158_" class="st10" d="M407.9,241.7c3.2-0.9,6.5-1.2,9.8-1.2c1.1,0,2.3-0.1,3.4,0.2c0.4,0.1,0.8,0.2,1.2,0.2
		c0.6,0.5,1,1.3,1.3,2c0.6,1.8,1,3.7,1.3,5.6c0,0.8,0.1,1.6-0.3,2.3c-0.4,0.7-1.1,1-1.9,1.2c-2.6,0.7-5.4,0-8,0.7
		c-2.2,0.5-4.2,1.7-5.5,3.4c-1.6,2-2.5,4.5-3,7c-0.4,2.2-0.8,4.5-1.2,6.7c-0.2,0.5-0.3,1-0.4,1.6c2.6,0,5.1,0,7.7,0c1,0,2,0,2.9,0
		c0.5,1.3,0.4,2.7,0.2,4c-0.2,1.5-0.6,3-1.2,4.3c-0.6,1.2-1.5,2.2-2.7,2.6c-0.7,0.3-1.4,0.2-2.1,0.2c-2.3,0-4.6,0-6.9,0
		c-0.4,1.7-0.6,3.4-0.9,5.1c-0.6,3.3-1.2,6.6-1.8,9.9c0,0.1,0,0.3,0,0.5v0c-5.9,0-11.9,0-17.8,0l0-0.2l0-0.3c0,0.1,0,0.3,0,0.4
		c0.4,0,1,0.2,1.1-0.3c0.9-5,1.8-10,2.7-15c-0.4-0.1-0.7-0.1-1.1,0c-0.1,0.2-0.1,0.4-0.2,0.6c0-0.2,0.1-0.4,0.1-0.6
		c-3.7,0-7.4,0-11.1,0c-0.9,0-1.8,0-2.7-0.1c-1.5-0.1-3.1,0-4.6-0.2c-1.9,0-3.8-0.2-5.7-0.2c-1.5-0.1-3-0.1-4.5-0.2
		c-1-0.1-2-0.1-3-0.1c-1.6-0.2-3.3-0.1-4.9-0.2c-1.7,0-3.4-0.1-5.1-0.2l0-0.1c0.6,0,1.1,0,1.7,0c1.3-0.2,2.5-0.1,3.8-0.2
		c1.3,0,2.6-0.2,3.9-0.2c1.2-0.2,2.4-0.1,3.5-0.2c1.4,0,2.7-0.2,4.1-0.2c1.1-0.1,2.3-0.1,3.4-0.2c1.3,0,2.6-0.2,3.9-0.2
		c1.3-0.1,2.6-0.1,3.9-0.2c-0.1-0.5-0.2-1-0.3-1.5c-0.1-0.3-0.5-0.2-0.7-0.3c-3-0.4-5.9-0.8-8.8-1.3c0.2-0.1,0.4-0.1,0.7-0.1
		c2.3-0.2,4.6-0.4,6.8-0.5c0.5,0,1-0.1,1.5-0.1c-0.2-0.7-0.4-1.5-0.7-2.1c-4.9-0.7-9.8-1.4-14.6-2.2c1.3-0.2,2.5-0.3,3.8-0.4
		c5.4,0,10.9,0,16.3,0c0.6,0,1.3,0.1,1.9,0.1c3,0,6,0,9,0.1c0.7,0,1.4,0,2.1,0c0.4-2.7,1-5.4,1.4-8.1c1-5,3-10,6.4-13.9
		c1.9-2.3,4.3-4.2,6.9-5.6C404.6,242.7,406.3,242.2,407.9,241.7z"/>
	<path id="XMLID_159_" class="st10" d="M407.9,241.7L407.9,241.7c3.2-0.9,6.5-1.1,9.8-1.1c0.2,0,0.5,0,0.7,0c0.2,0,0.3,0,0.5,0
		c0.8,0,1.5,0,2.3,0.2l0,0c0.4,0.1,0.7,0.2,1.1,0.2l0.1,0l0,0l0,0c0.6,0.5,1,1.3,1.3,2c0.6,1.8,1,3.7,1.3,5.6l0,0l0,0
		c0,0.3,0,0.7,0,1c0,0.5-0.1,0.9-0.3,1.3c-0.4,0.7-1.1,1-1.9,1.2c-2.6,0.7-5.4,0-8,0.7c-2.2,0.5-4.2,1.7-5.6,3.4c-1.6,2-2.5,4.5-3,7
		c-0.4,2.2-0.8,4.5-1.2,6.7l0,0l0,0c-0.2,0.5-0.3,1-0.4,1.6l0,0l0,0c1,0,2,0,3,0c0.8,0,1.6,0,2.5,0c0.8,0,1.5,0,2.3,0
		c0.2,0,0.5,0,0.7,0c0.3,0,0.6,0,1,0c0.4,0,0.9,0,1.3,0l0,0l0,0c0.3,0.7,0.4,1.4,0.4,2.1c0,0.6-0.1,1.2-0.1,1.8
		c-0.2,1.5-0.6,3-1.2,4.3c-0.6,1.2-1.5,2.2-2.7,2.6h0l0,0c-0.5,0.2-0.9,0.2-1.4,0.2c-0.2,0-0.4,0-0.6,0c-1.5,0-3,0-4.6,0
		c-0.8,0-1.5,0-2.3,0l0,0l0,0c-0.4,1.7-0.6,3.4-0.9,5.1c-0.6,3.3-1.2,6.6-1.8,9.9l0,0c0,0.1,0,0.3,0,0.5v0h0v0c-4,0-7.9,0-11.9,0
		c-2,0-4,0-5.9,0v0l0,0l0-0.2l0-0.3l0,0l0,0c0,0.1,0,0.3,0,0.4l0,0l0,0c0.2,0,0.4,0.1,0.6,0.1c0.3,0,0.5-0.1,0.5-0.4
		c0.9-5,1.8-10,2.7-15l0,0l0,0c-0.2,0-0.4-0.1-0.6-0.1c-0.2,0-0.4,0-0.5,0l0,0l0,0c-0.1,0.2-0.1,0.4-0.2,0.6l0,0l0,0
		c0-0.2,0.1-0.4,0.1-0.6l0,0h0c-1.8,0-3.7,0-5.6,0c-1.9,0-3.7,0-5.6,0c-0.9,0-1.8,0-2.7-0.1l0,0h0c-1.5-0.1-3.1,0-4.6-0.2h0h0
		c-1.9,0-3.8-0.2-5.7-0.2v0l0,0c-1.5-0.1-3-0.1-4.5-0.2l0,0l0,0c-1-0.1-2-0.1-3-0.1l0,0l0,0c-1.6-0.2-3.3-0.1-4.9-0.2l0,0h0l-0.2,0
		c-1.6,0-3.3-0.1-4.9-0.2l0,0l0,0l0-0.1h0l0,0l0.2,0c0.5,0,1,0,1.5,0h0h0c1.3-0.2,2.5-0.1,3.8-0.2l0,0v0c1.3,0,2.6-0.2,3.9-0.2h0h0
		c1.2-0.2,2.4-0.1,3.5-0.2l0,0v0c1.4,0,2.7-0.2,4.1-0.2h0l0,0c1.1-0.1,2.3-0.1,3.4-0.2l0,0v0l0.1,0c1.2,0,2.5-0.2,3.7-0.2l0.1,0h0
		l0,0c1.3-0.1,2.6-0.1,3.9-0.2l0,0l0,0c-0.1-0.5-0.2-1-0.3-1.5l0,0l0,0c-0.1-0.3-0.5-0.2-0.7-0.3c-3-0.4-5.9-0.8-8.8-1.3l0,0l0,0
		c0.1-0.1,0.3-0.1,0.4-0.1l0.1,0l0.2,0l0,0l0,0c2.3-0.2,4.6-0.4,6.8-0.5c0.5,0,1-0.1,1.5-0.1l0,0l0,0c-0.2-0.7-0.4-1.5-0.7-2.1l0,0
		l0,0c-4.9-0.7-9.8-1.4-14.6-2.2l0,0l0,0c1.3-0.2,2.5-0.3,3.8-0.4l0,0v0c4.1,0,8.2,0,12.2,0c1.4,0,2.7,0,4.1,0h0h0l0.2,0
		c0.5,0,1,0.1,1.5,0.1l0.2,0l0,0l0,0c3,0,6,0,9,0.1c0.4,0,0.7,0,1.1,0c0.3,0,0.6,0,0.9,0l0,0l0,0c0.4-2.7,1-5.4,1.4-8.1
		c1-5,3-10,6.4-13.9c1.9-2.3,4.3-4.2,6.9-5.6C404.6,242.8,406.3,242.2,407.9,241.7L407.9,241.7L407.9,241.7c-1.7,0.5-3.3,1.1-4.8,2
		c-2.6,1.4-5,3.3-6.9,5.6c-3.4,3.9-5.4,8.9-6.4,13.9c-0.5,2.7-1,5.4-1.4,8.1l0,0l0,0c-0.3,0-0.6,0-0.9,0c-0.4,0-0.8,0-1.1,0
		c-3,0-6,0-9-0.1l0,0l0,0l-0.2,0c-0.5,0-1-0.1-1.5-0.1l-0.2,0l0,0v0c-1.4,0-2.7,0-4.1,0c-4.1,0-8.2,0-12.2,0h0h0
		c-1.3,0.1-2.5,0.2-3.8,0.4l0,0c4.9,0.8,9.8,1.5,14.6,2.2l0,0l0,0c0.3,0.7,0.4,1.4,0.7,2.1l0,0l0,0c-0.5,0-1,0.1-1.5,0.1
		c-2.3,0.2-4.6,0.4-6.8,0.5h0h0l-0.2,0l-0.1,0c-0.1,0-0.3,0-0.4,0.1l0,0l0,0c2.9,0.4,5.9,0.8,8.8,1.3c0.2,0,0.6,0,0.7,0.3l0,0l0,0
		c0.1,0.5,0.2,1,0.3,1.5l0,0l0,0c-1.3,0.1-2.6,0.1-3.9,0.2l0,0l0,0l-0.1,0c-1.2,0-2.5,0.2-3.7,0.2l-0.1,0h0h0
		c-1.1,0.1-2.3,0.1-3.4,0.2l0,0l0,0c-1.4,0-2.7,0.2-4.1,0.2h0h0c-1.2,0.2-2.4,0.1-3.5,0.2l0,0v0c-1.3,0-2.6,0.2-3.9,0.2h0l0,0
		c-1.3,0.2-2.5,0.1-3.8,0.2l0,0l0,0c-0.5,0-1,0-1.5,0l-0.2,0l0,0v0l0,0.1l0,0l0,0c1.6,0,3.3,0.2,4.9,0.2l0.2,0v0l0,0
		c1.6,0.2,3.3,0.1,4.9,0.2h0l0,0c1,0,2,0,3,0.1h0h0c1.5,0.1,3,0,4.5,0.2h0h0c1.9,0,3.8,0.2,5.7,0.2v0l0,0c1.5,0.1,3.1,0.1,4.6,0.2
		l0,0l0,0c0.9,0.1,1.8,0.1,2.7,0.1c1.9,0,3.7,0,5.6,0c1.9,0,3.7,0,5.6,0v0l0,0c0,0.2-0.1,0.4-0.1,0.6l0,0c0.1-0.2,0.1-0.4,0.2-0.6
		l0,0l0,0c0.2,0,0.4,0,0.5,0c0.2,0,0.4,0,0.6,0.1l0,0l0,0c-1,5-1.8,10-2.7,15c-0.1,0.3-0.3,0.4-0.5,0.4c-0.2,0-0.4,0-0.6-0.1l0,0
		l0,0c0-0.1,0-0.3,0-0.4l0,0l0,0.3l0,0.2l0,0l0,0c2,0,4,0,5.9,0c4,0,7.9,0,11.9,0h0v0c0-0.1,0-0.4,0-0.5l0,0l0,0
		c0.6-3.3,1.2-6.6,1.8-9.9c0.3-1.7,0.6-3.4,0.9-5.1l0,0l0,0c0.8,0,1.5,0,2.3,0c1.5,0,3,0,4.6,0c0.2,0,0.4,0,0.6,0c0.5,0,1,0,1.4-0.2
		l0,0l0,0c1.3-0.4,2.2-1.5,2.8-2.6c0.7-1.4,1-2.8,1.2-4.3c0.1-0.6,0.1-1.2,0.1-1.8c0-0.7-0.1-1.5-0.4-2.1l0,0l0,0
		c-0.4,0-0.9,0-1.3,0c-0.3,0-0.6,0-1,0c-0.2,0-0.5,0-0.7,0c-0.8,0-1.5,0-2.3,0c-0.8,0-1.6,0-2.5,0c-1,0-2,0-3,0l0,0l0,0
		c0.1-0.5,0.2-1.1,0.4-1.6l0,0l0,0c0.4-2.2,0.8-4.5,1.2-6.7c0.5-2.5,1.3-5,3-7c1.4-1.7,3.4-2.9,5.5-3.4c2.6-0.6,5.4,0,8-0.7
		c0.7-0.2,1.5-0.5,1.9-1.2c0.2-0.4,0.3-0.9,0.3-1.3c0-0.3,0-0.7,0-1v0l0,0c-0.3-1.9-0.7-3.8-1.3-5.6c-0.3-0.8-0.7-1.5-1.3-2l0,0l0,0
		l-0.1,0c-0.4,0-0.7-0.2-1.1-0.2l0,0l0,0c-0.7-0.1-1.5-0.2-2.3-0.2c-0.2,0-0.3,0-0.5,0c-0.2,0-0.5,0-0.7,0
		C414.4,240.5,411.1,240.8,407.9,241.7L407.9,241.7z"/>
	<path id="XMLID_160_" class="st9" d="M405,269.8c2.6,0,5.2,0,7.8,0c1,0,2.1,0.6,2.5,1.6c-1,0.1-2,0-2.9,0c-2.6,0-5.1,0-7.7,0
		C404.8,270.9,404.9,270.3,405,269.8z"/>
	<path id="XMLID_161_" class="st9" d="M405,269.8L405,269.8c0.6,0,1.2,0,1.8,0c1,0,2.1,0,3.1,0c1,0,1.9,0,2.9,0c1,0,2.1,0.6,2.5,1.5
		l0,0l0,0c-0.4,0-0.9,0-1.3,0c-0.3,0-0.6,0-1,0c-0.2,0-0.5,0-0.7,0c-0.8,0-1.5,0-2.3,0c-0.8,0-1.6,0-2.5,0c-1,0-2,0-3,0l0,0l0,0
		C404.8,270.9,404.9,270.3,405,269.8L405,269.8L405,269.8L405,269.8L405,269.8c-0.2,0.5-0.3,1-0.4,1.6l0,0l0,0c1,0,2,0,3,0
		c0.8,0,1.6,0,2.5,0c0.8,0,1.5,0,2.3,0c0.2,0,0.5,0,0.7,0c0.3,0,0.6,0,1,0c0.4,0,0.9,0,1.3,0l0,0l0,0c-0.4-1-1.5-1.6-2.5-1.6
		c-1,0-1.9,0-2.9,0c-1,0-2.1,0-3.1,0C406.2,269.8,405.6,269.8,405,269.8L405,269.8L405,269.8L405,269.8z"/>
	<path id="XMLID_162_" class="st9" d="M385,282.5c0.4-0.1,0.8-0.1,1.1,0c-1,5-1.8,10-2.7,15c-0.1,0.5-0.8,0.3-1.1,0.3
		c0-0.1,0-0.3,0-0.4c0.9-4.8,1.7-9.6,2.6-14.4C384.9,282.9,384.9,282.7,385,282.5z"/>
	<path id="XMLID_163_" class="st9" d="M385,282.5L385,282.5c0.2,0,0.4,0,0.5,0c0.2,0,0.4,0,0.6,0.1l0,0l0,0c-1,5-1.8,10-2.7,15
		c-0.1,0.3-0.3,0.4-0.5,0.4c-0.2,0-0.4,0-0.6-0.1l0,0l0,0c0-0.1,0-0.3,0-0.4l0,0l0,0c0.9-4.8,1.7-9.6,2.6-14.4l0,0l0,0
		C384.9,282.9,384.9,282.7,385,282.5L385,282.5L385,282.5L385,282.5L385,282.5c-0.1,0.2-0.1,0.4-0.2,0.6l0,0l0,0
		c-0.9,4.8-1.7,9.6-2.6,14.4l0,0l0,0c0,0.1,0,0.3,0,0.4l0,0l0,0c0.2,0,0.4,0.1,0.6,0.1c0.3,0,0.5-0.1,0.5-0.4c0.9-5,1.8-10,2.7-15
		l0,0l0,0c-0.2,0-0.4-0.1-0.6-0.1C385.3,282.5,385.2,282.5,385,282.5L385,282.5L385,282.5L385,282.5z"/>
	<path id="XMLID_164_" class="st11" d="M406.2,222.9c-0.1-0.2-0.1-0.4-0.1-0.7l-0.1,0c-0.2-0.6-0.7-1.2-1.3-1.2
		c-0.5,0-1.1,0-1.4,0.4c-0.5,0.7-0.3,1.7-0.3,2.5l0,0.2c0,0.6-0.1,1.1-0.2,1.6c-0.1,0.2-0.1,0.3-0.1,0.5c-0.2,1.3-0.7,2.5-1.3,3.7
		c-0.1,0.2-0.2,0.3-0.3,0.5c-0.4,0.7-0.9,1.4-1.4,2l-0.2,0.2c-0.4,0.4-0.7,0.8-1.1,1.2c-0.1,0.1-0.2,0.1-0.2,0.2
		c-0.5,0.4-1,0.9-1.5,1.2l-0.2,0.1c-3.5,2.3-7.7,3.3-11.8,3.3c-3.5,0.1-7-0.6-10.2-2.1l-0.2-0.1c-0.5-0.3-1.1-0.5-1.6-0.9
		c-0.1-0.1-0.2-0.1-0.3-0.2c-0.5-0.3-1-0.6-1.4-1c-0.1-0.1-0.3-0.2-0.5-0.4c-0.5-0.4-1-0.8-1.4-1.3c-0.1-0.1-0.2-0.2-0.3-0.3
		c-1.5-1.5-2.6-3.4-3.3-5.5c-0.6-1.6-0.5-3.4-0.6-5.1c-0.5-0.7-1.5-1.2-2.3-0.7c-0.3,0.2-0.4,0.7-0.6,1c-0.4,4.5,1.5,9,4.6,12.2
		c0,0.1,0.1,0.2,0.1,0.2c0.5,0.5,1.1,1,1.6,1.5c0.1,0.1,0.2,0.2,0.3,0.3c0.5,0.4,1.1,0.9,1.7,1.3c0.1,0.1,0.2,0.1,0.3,0.2
		c0.7,0.4,1.5,1,2.3,1.3l0.2,0.1c2.6,1.2,5.4,2.1,8.2,2.4c0.3,0,0.6,0,0.9,0.1c1.4,0.1,2.7,0,4.1,0c4.2-0.4,8.5-1.4,12.1-3.9l0,0.1
		c0.1-0.1,0.2-0.2,0.3-0.3c0.6-0.4,1.1-0.8,1.6-1.3c0.1-0.1,0.3-0.2,0.4-0.3c0.6-0.7,1.3-1.3,1.8-2l0.1,0l0.1-0.3
		c0.5-0.6,0.9-1.3,1.3-1.9l0.1-0.1l-0.1-0.1l0.2-0.2c0.7-1.5,1.4-3.1,1.6-4.8c0.1,0,0.1-0.1,0.1-0.2c0-0.5,0.2-1.1,0.1-1.6
		C406.2,224.3,406.3,223.6,406.2,222.9z"/>
	<path id="XMLID_165_" class="st11" d="M406.2,222.9L406.2,222.9c-0.1-0.2-0.1-0.4-0.1-0.7v0l-0.1,0l0,0l0,0
		c-0.2-0.6-0.7-1.2-1.3-1.2c-0.1,0-0.2,0-0.3,0c-0.4,0-0.8,0.1-1.1,0.5l0,0l0,0c-0.3,0.4-0.4,0.8-0.4,1.3c0,0.4,0,0.7,0,1.1l0,0.1v0
		l0,0.2c0,0.6-0.1,1.1-0.2,1.6l0,0l0,0c-0.1,0.2-0.1,0.3-0.1,0.5h0l0,0c-0.2,1.3-0.7,2.5-1.3,3.7l0,0l0,0c-0.1,0.2-0.2,0.3-0.3,0.5
		l0,0l0,0c-0.4,0.7-0.9,1.4-1.4,2l0,0l0,0l-0.2,0.2c-0.4,0.4-0.7,0.8-1.1,1.2l0,0l0,0c-0.1,0.1-0.2,0.1-0.2,0.2l0,0l0,0
		c-0.5,0.4-1,0.9-1.5,1.2l-0.2,0.1c-3.5,2.3-7.7,3.3-11.8,3.3c-0.2,0-0.4,0-0.7,0c-3.3,0-6.5-0.7-9.5-2.2l-0.2-0.1l0,0l0,0
		c-0.5-0.3-1.1-0.5-1.6-0.9l0,0l0,0c-0.1-0.1-0.2-0.1-0.3-0.2l0,0l0,0c-0.5-0.3-1-0.6-1.4-1l0,0l0,0c-0.2-0.1-0.3-0.2-0.5-0.4l0,0
		l0,0c-0.5-0.4-1-0.8-1.4-1.3c-0.1-0.1-0.2-0.2-0.3-0.3c-1.5-1.5-2.6-3.4-3.2-5.5l0,0v0c-0.6-1.6-0.5-3.4-0.6-5.1l0,0l0,0
		c-0.4-0.5-1-0.9-1.6-0.9c-0.3,0-0.5,0.1-0.7,0.2l0,0l0,0c-0.3,0.2-0.4,0.7-0.6,1l0,0l0,0c0,0.4-0.1,0.8-0.1,1.2c0,4.1,1.8,8,4.6,11
		l0,0h0c0,0.1,0.1,0.2,0.2,0.2l0,0l0,0c0.5,0.5,1.1,1,1.6,1.5l0,0l0,0c0.1,0.1,0.2,0.2,0.3,0.3l0,0l0,0c0.5,0.4,1.1,0.9,1.7,1.3
		c0.1,0.1,0.2,0.2,0.3,0.2c0.7,0.4,1.5,1,2.3,1.3l0,0l0,0l0.2,0.1c2.6,1.2,5.4,2.1,8.2,2.4h0h0c0.3,0,0.6,0,0.9,0.1l0,0h0
		c0.6,0,1.2,0,1.8,0c0.8,0,1.5,0,2.3,0h0h0c4.2-0.4,8.5-1.4,12.1-3.9l0,0l0,0l0,0.1l0,0l0,0c0.1-0.1,0.2-0.2,0.3-0.3
		c0.6-0.4,1.1-0.8,1.6-1.3c0.1-0.1,0.3-0.2,0.4-0.3l0,0l0,0c0.6-0.7,1.3-1.3,1.8-2l0,0l0,0l0.1,0l0,0l0,0l0.1-0.3l0,0l0,0
		c0.5-0.6,0.9-1.3,1.3-1.9l0.1-0.1l0,0l-0.1-0.1l0,0l0,0l0.2-0.2l0,0l0,0c0.7-1.5,1.4-3.1,1.6-4.8l0,0l0,0c0.1,0,0.2-0.1,0.2-0.2h0
		l0,0c0-0.5,0.2-0.9,0.2-1.4l0-0.2l0,0l0,0c0.1-0.5,0.1-1,0.1-1.5C406.2,223.3,406.2,223.1,406.2,222.9L406.2,222.9L406.2,222.9
		L406.2,222.9L406.2,222.9c0,0.2,0,0.4,0,0.6c0,0.5,0,1-0.1,1.5l0,0l0,0l0,0.2c0,0.5-0.1,0.9-0.2,1.4v0c0,0.1-0.1,0.2-0.1,0.2l0,0
		l0,0c-0.2,1.7-0.9,3.3-1.6,4.8l0,0l0,0l-0.2,0.2l0,0l0.1,0.1l0,0l0,0l-0.1,0.1c-0.4,0.7-0.8,1.3-1.3,1.9l0,0l0,0l-0.1,0.3l0,0l0,0
		l-0.1,0l0,0l0,0c-0.5,0.7-1.2,1.3-1.8,2l0,0l0,0c-0.1,0.1-0.3,0.2-0.4,0.3c-0.5,0.4-1.1,0.9-1.6,1.3c-0.1,0.1-0.2,0.2-0.3,0.3l0,0
		l0,0l0-0.1l0,0l0,0c-3.5,2.5-7.8,3.5-12,3.9l0,0l0,0c-0.8,0-1.5,0-2.3,0c-0.6,0-1.2,0-1.8,0l0,0l0,0c-0.3-0.1-0.6-0.1-0.9-0.1v0
		l0,0c-2.9-0.3-5.6-1.1-8.2-2.4l-0.2-0.1l0,0l0,0c-0.8-0.3-1.5-0.8-2.3-1.3c-0.1-0.1-0.2-0.1-0.3-0.2c-0.6-0.4-1.2-0.8-1.7-1.3l0,0
		l0,0c-0.1-0.1-0.2-0.2-0.3-0.3l0,0h0c-0.5-0.5-1.1-1-1.6-1.5l0,0l0,0c-0.1,0-0.1-0.1-0.1-0.2v0l0,0c-2.8-2.9-4.6-6.9-4.6-11
		c0-0.4,0-0.8,0.1-1.2l0,0l0,0c0.3-0.3,0.3-0.8,0.6-1l0,0l0,0c0.2-0.1,0.5-0.2,0.7-0.2c0.6,0,1.2,0.4,1.6,0.9l0,0l0,0
		c0.1,1.7,0,3.5,0.6,5.1l0,0l0,0c0.6,2,1.8,3.9,3.3,5.5c0.1,0.1,0.2,0.2,0.3,0.3c0.4,0.5,0.9,0.9,1.4,1.3l0,0
		c0.2,0.1,0.3,0.2,0.5,0.4h0l0,0c0.4,0.4,0.9,0.7,1.4,1l0,0l0,0c0.1,0.1,0.2,0.1,0.3,0.2l0,0l0,0c0.5,0.4,1,0.6,1.6,0.9h0l0,0
		l0.2,0.1c3,1.4,6.2,2.2,9.5,2.2c0.2,0,0.4,0,0.7,0c4.1,0,8.4-1,11.8-3.3l0.2-0.1c0.6-0.3,1.1-0.8,1.5-1.2l0,0l0,0
		c0.1-0.1,0.2-0.1,0.2-0.2l0,0l0,0c0.4-0.4,0.8-0.7,1.1-1.2l0.2-0.2l0,0l0,0c0.5-0.7,1-1.3,1.4-2l0,0l0,0c0-0.2,0.1-0.4,0.3-0.5l0,0
		l0,0c0.6-1.2,1.1-2.4,1.3-3.7l0,0v0c0-0.2,0-0.4,0.1-0.5l0,0l0,0c0.1-0.5,0.2-1.1,0.2-1.6l0-0.2h0l0,0l0-0.1c0-0.4,0-0.7,0-1.1
		c0-0.5,0.1-0.9,0.3-1.3l0,0l0,0c0.2-0.4,0.6-0.4,1.1-0.4c0.1,0,0.2,0,0.3,0c0.6,0,1.2,0.6,1.3,1.2l0,0l0.1,0l0,0h0
		C406.1,222.5,406.1,222.7,406.2,222.9L406.2,222.9L406.2,222.9L406.2,222.9z"/>
	<g id="XMLID_168_">
		<defs>
			<path id="XMLID_167_" d="M406.2,222.9c-0.1-0.2-0.1-0.4-0.1-0.7l-0.1,0c-0.2-0.6-0.7-1.2-1.3-1.2c-0.5,0-1.1,0-1.4,0.4
				c-0.5,0.7-0.3,1.7-0.3,2.5l0,0.2c0,0.6-0.1,1.1-0.2,1.6c-0.1,0.2-0.1,0.3-0.1,0.5c-0.2,1.3-0.7,2.5-1.3,3.7
				c-0.1,0.2-0.2,0.3-0.3,0.5c-0.4,0.7-0.9,1.4-1.4,2l-0.2,0.2c-0.4,0.4-0.7,0.8-1.1,1.2c-0.1,0.1-0.2,0.1-0.2,0.2
				c-0.5,0.4-1,0.9-1.5,1.2l-0.2,0.1c-3.5,2.3-7.7,3.3-11.8,3.3c-3.5,0.1-7-0.6-10.2-2.1l-0.2-0.1c-0.5-0.3-1.1-0.5-1.6-0.9
				c-0.1-0.1-0.2-0.1-0.3-0.2c-0.5-0.3-1-0.6-1.4-1c-0.1-0.1-0.3-0.2-0.5-0.4c-0.5-0.4-1-0.8-1.4-1.3c-0.1-0.1-0.2-0.2-0.3-0.3
				c-1.5-1.5-2.6-3.4-3.3-5.5c-0.6-1.6-0.5-3.4-0.6-5.1c-0.5-0.7-1.5-1.2-2.3-0.7c-0.3,0.2-0.4,0.7-0.6,1c-0.4,4.5,1.5,9,4.6,12.2
				c0,0.1,0.1,0.2,0.1,0.2c0.5,0.5,1.1,1,1.6,1.5c0.1,0.1,0.2,0.2,0.3,0.3c0.5,0.4,1.1,0.9,1.7,1.3c0.1,0.1,0.2,0.1,0.3,0.2
				c0.7,0.4,1.5,1,2.3,1.3l0.2,0.1c2.6,1.2,5.4,2.1,8.2,2.4c0.3,0,0.6,0,0.9,0.1c1.4,0.1,2.7,0,4.1,0c4.2-0.4,8.5-1.4,12.1-3.9
				l0,0.1c0.1-0.1,0.2-0.2,0.3-0.3c0.6-0.4,1.1-0.8,1.6-1.3c0.1-0.1,0.3-0.2,0.4-0.3c0.6-0.7,1.3-1.3,1.8-2l0.1,0l0.1-0.3
				c0.5-0.6,0.9-1.3,1.3-1.9l0.1-0.1l-0.1-0.1l0.2-0.2c0.7-1.5,1.4-3.1,1.6-4.8c0.1,0,0.1-0.1,0.1-0.2c0-0.5,0.2-1.1,0.1-1.6
				C406.2,224.3,406.3,223.6,406.2,222.9z"/>
		</defs>
		<clipPath id="XMLID_7_">
			<use xlink:href="#XMLID_167_"  style="overflow:visible;"/>
		</clipPath>
		<path id="XMLID_169_" class="st12" d="M360.7,222.6c0.2,0.1,0.5,0.1,0.8,0.1c0.4,0,0.8,0,1.2-0.1c0.4,0,0.8-0.1,1.2-0.1
			c0.3,0,0.5,0,0.7,0.1c0.2,0,0.3,0.1,0.4,0.2l0.2-0.2c-0.1-0.2-0.3-0.3-0.6-0.3c-0.2-0.1-0.5-0.1-0.8-0.1c-0.4,0-0.8,0-1.2,0.1
			c-0.4,0-0.8,0.1-1.2,0.1c-0.3,0-0.5,0-0.7-0.1L360.7,222.6z"/>
		<path id="XMLID_170_" class="st12" d="M361.4,225.9c0.4-0.1,1-0.4,1.6-0.5c0.6-0.2,1.3-0.3,1.8-0.3c0.3,0,0.5,0,0.7,0.1l0.1-0.2
			c-0.2-0.1-0.5-0.2-0.8-0.2c-0.6,0-1.2,0.2-1.9,0.3c-0.6,0.2-1.2,0.4-1.6,0.6L361.4,225.9z"/>
		<path id="XMLID_171_" class="st12" d="M362.4,229.3l0.2,0c0.2,0,0.3-0.1,0.5-0.1c0.3-0.1,0.5-0.3,0.8-0.5c0.3-0.2,0.5-0.3,0.6-0.4
			c0.7-0.4,1.5-0.7,2.3-0.8l0-0.3c-0.8,0.1-1.6,0.4-2.4,0.8c-0.1,0.1-0.3,0.2-0.4,0.3c-0.2,0.2-0.5,0.3-0.7,0.5
			c-0.1,0.1-0.2,0.1-0.4,0.2c-0.1,0-0.2,0.1-0.3,0.1l-0.1,0L362.4,229.3z"/>
		<path id="XMLID_172_" class="st12" d="M364.2,232.8c0.5-0.7,1.1-1.3,1.9-1.9c0.3-0.2,0.9-0.6,1.5-0.9c0.3-0.2,0.6-0.3,0.9-0.4
			c0.3-0.1,0.6-0.2,0.8-0.2c0.2,0,0.3,0,0.4,0.1l0.1-0.2c-0.2-0.1-0.3-0.1-0.5-0.1c-0.3,0-0.6,0.1-0.9,0.2c-0.9,0.3-2,1-2.5,1.4
			c-0.8,0.5-1.4,1.2-2,1.9L364.2,232.8z"/>
		<path id="XMLID_173_" class="st12" d="M365.7,235.3c0.3-0.3,0.5-0.6,0.8-0.9c0.2-0.3,0.4-0.7,0.7-0.9c0.4-0.3,0.8-0.5,1.3-0.6
			c0.5-0.1,1-0.3,1.4-0.5l-0.1-0.2c-0.4,0.2-0.9,0.3-1.3,0.4c-0.5,0.2-1,0.3-1.4,0.7c-0.3,0.3-0.6,0.6-0.8,0.9
			c-0.2,0.3-0.4,0.6-0.7,0.9L365.7,235.3z"/>
		<path id="XMLID_174_" class="st12" d="M368.3,237.1c0.1-0.6,0.4-1.3,0.9-1.8c0.2-0.3,0.5-0.5,0.8-0.6c0.3-0.2,0.6-0.2,0.8-0.2
			l0.1,0l0-0.3l-0.1,0c-0.3,0-0.7,0.1-1,0.3c-0.5,0.3-0.9,0.7-1.2,1.1c-0.3,0.5-0.5,1-0.6,1.5L368.3,237.1z"/>
		<path id="XMLID_175_" class="st12" d="M370.2,239.1c0.1,0,0.2-0.1,0.3-0.1c0.2-0.1,0.3-0.3,0.4-0.4c0.2-0.3,0.4-0.6,0.6-0.9
			c0.2-0.3,0.3-0.6,0.5-0.7c0.3-0.4,0.7-0.6,1-0.8c0.4-0.2,0.8-0.3,1.2-0.4l-0.1-0.3c-0.5,0.1-0.9,0.3-1.3,0.5
			c-0.4,0.2-0.8,0.5-1.1,0.9c-0.1,0.1-0.2,0.3-0.4,0.6c-0.2,0.3-0.4,0.7-0.6,1c-0.1,0.1-0.2,0.3-0.3,0.4c-0.1,0.1-0.2,0.1-0.3,0.1
			L370.2,239.1z"/>
		<path id="XMLID_176_" class="st12" d="M374.2,240.6L374.2,240.6c0-0.3,0.1-0.6,0.2-1c0.2-0.5,0.4-1.2,0.7-1.6
			c0.2-0.2,0.3-0.4,0.5-0.6c0.2-0.1,0.3-0.2,0.5-0.2l0.1,0l0-0.3l-0.1,0c-0.2,0-0.3,0-0.5,0.1c-0.3,0.1-0.5,0.4-0.7,0.7
			c-0.3,0.4-0.5,1-0.7,1.5c-0.2,0.5-0.3,1-0.3,1.4l0,0.1L374.2,240.6L374.2,240.6z"/>
		<path id="XMLID_177_" class="st12" d="M377.1,241.5l0-0.1c0-0.6,0.1-1.7,0.5-2.6c0.2-0.5,0.3-0.9,0.6-1.2c0.1-0.2,0.2-0.3,0.4-0.4
			c0.1-0.1,0.3-0.1,0.4-0.2l0-0.3c-0.2,0-0.4,0.1-0.5,0.2c-0.3,0.2-0.5,0.5-0.7,0.9c-0.3,0.5-0.5,1.2-0.6,1.9
			c-0.1,0.6-0.2,1.3-0.2,1.7l0,0.1L377.1,241.5z"/>
		<path id="XMLID_178_" class="st12" d="M380.1,243.3c-0.1-0.5-0.1-1-0.1-1.6c0-0.6,0.1-1.3,0.2-1.8c0.2-0.6,0.4-1.1,0.8-1.5
			l-0.2-0.2c-0.5,0.4-0.7,1-0.9,1.6c-0.2,0.6-0.2,1.3-0.2,1.9c0,0.6,0.1,1.1,0.1,1.6L380.1,243.3z"/>
		<path id="XMLID_179_" class="st12" d="M383.8,243.7c0-0.4-0.2-1-0.4-1.6c-0.2-0.6-0.3-1.2-0.3-1.8c0-0.3,0-0.6,0.1-0.8
			c0.1-0.2,0.2-0.4,0.5-0.6l-0.2-0.2c-0.3,0.2-0.5,0.4-0.6,0.7c-0.1,0.3-0.2,0.6-0.2,0.9c0,0.6,0.1,1.3,0.3,1.9
			c0.2,0.6,0.3,1.2,0.4,1.6L383.8,243.7z"/>
		<path id="XMLID_180_" class="st12" d="M387.8,242.7c-0.1-0.1-0.2-0.3-0.3-0.6c-0.3-0.8-0.5-2-0.5-2.9c0-0.3,0-0.6,0.1-0.7
			l-0.3-0.1c-0.1,0.2-0.1,0.5-0.1,0.8c0,0.6,0.1,1.4,0.2,2c0.1,0.3,0.2,0.7,0.3,0.9c0.1,0.3,0.2,0.5,0.4,0.7L387.8,242.7
			L387.8,242.7z"/>
		<path id="XMLID_181_" class="st12" d="M391.6,242.1c-0.5-0.9-1.1-1.7-1.2-2.7c0-0.1,0-0.3,0-0.4c0-0.4,0-0.8,0-1.1
			c0-0.1,0-0.3,0-0.4l-0.3,0.1c0,0.1,0,0.2,0,0.3c0,0.3,0,0.7,0,1.1c0,0.2,0,0.3,0,0.5c0.2,1.1,0.8,1.9,1.3,2.7L391.6,242.1z"/>
		<path id="XMLID_182_" class="st12" d="M394.7,240.7c-0.2-0.1-0.3-0.3-0.5-0.5c-0.4-0.7-0.6-1.7-0.6-2.6c0-0.4,0-0.8,0.1-1
			l-0.3-0.1c-0.1,0.3-0.1,0.7-0.1,1.1c0,0.6,0.1,1.3,0.3,1.9c0.1,0.3,0.2,0.6,0.4,0.8c0.1,0.2,0.3,0.4,0.5,0.6L394.7,240.7z"/>
		<path id="XMLID_183_" class="st12" d="M397.8,239.3c-0.4-0.8-0.8-1.5-1-2.2c-0.3-0.7-0.5-1.5-0.5-2.3l-0.3,0
			c0,0.9,0.2,1.7,0.5,2.4c0.3,0.7,0.7,1.4,1,2.2L397.8,239.3z"/>
		<path id="XMLID_184_" class="st12" d="M400.8,236.4c-0.5-0.4-1.1-0.9-1.6-1.4c-0.5-0.6-0.8-1.2-0.8-1.9l0-0.2l-0.3,0l0,0.3
			c0,0.8,0.4,1.5,0.9,2.1c0.5,0.6,1.1,1.1,1.7,1.5L400.8,236.4z"/>
		<path id="XMLID_185_" class="st12" d="M403.9,233.9c-0.8-0.2-1.8-0.7-2.7-1.3c-0.9-0.6-1.6-1.3-2.2-2l-0.2,0.2
			c0.5,0.7,1.3,1.5,2.2,2.1c0.9,0.6,1.9,1.1,2.8,1.3L403.9,233.9z"/>
		<path id="XMLID_186_" class="st12" d="M405.4,230.9c-0.3-0.1-0.8-0.2-1.3-0.4c-0.8-0.3-1.8-0.7-2.5-1.3c-0.4-0.3-0.7-0.5-0.9-0.8
			c-0.2-0.3-0.3-0.5-0.3-0.8l0-0.1l-0.3,0l0,0.2c0,0.2,0.1,0.4,0.2,0.7c0.2,0.4,0.6,0.7,1,1c0.6,0.5,1.5,0.9,2.2,1.2
			c0.8,0.3,1.5,0.5,1.9,0.6L405.4,230.9L405.4,230.9z"/>
		<path id="XMLID_187_" class="st12" d="M406.7,227.8c-0.9-0.3-2-0.6-3-1c-1-0.4-2-0.8-2.7-1.4l-0.2,0.2c0.7,0.6,1.7,1.1,2.8,1.5
			c1,0.4,2.1,0.7,3,1L406.7,227.8z"/>
		<path id="XMLID_188_" class="st12" d="M407.6,224.9c-0.1,0-0.2,0-0.3,0c-0.5,0-1.1-0.1-1.8-0.3c-0.6-0.1-1.2-0.3-1.8-0.4
			c-1.2-0.2-2.4-0.6-3.6-0.9l-0.1,0.3c1.2,0.3,2.4,0.7,3.6,0.9c0.5,0.1,1.1,0.2,1.7,0.4c0.6,0.1,1.3,0.3,1.8,0.3c0.1,0,0.2,0,0.3,0
			L407.6,224.9L407.6,224.9z"/>
		<path id="XMLID_189_" class="st12" d="M406.5,222c-0.2,0-0.3,0-0.5,0c-1.9,0-3.7-0.7-5.5-1.3l-0.1,0.3c1.8,0.6,3.6,1.3,5.6,1.3
			c0.2,0,0.3,0,0.5,0L406.5,222z"/>
	</g>
	<path id="XMLID_166_" class="st10" d="M133.5,228.7c2-0.3,4.2-0.5,5.9,0.7c1,0.8,1.4,2.2,1.3,3.5c0.1,2.1-0.9,4.3-2.8,5.4
		c-1.6,0.9-3.6,1-5.4,0.8c-1.2-0.1-2.5-0.8-3.1-1.9C128.1,233.9,129.8,229.3,133.5,228.7z"/>
	<path id="XMLID_190_" class="st10" d="M133.5,228.7L133.5,228.7c0.8-0.1,1.6-0.2,2.5-0.2c1.2,0,2.5,0.2,3.5,1c1,0.7,1.3,2,1.3,3.1
		c0,0.1,0,0.2,0,0.3v0v0l0,0.2c0,2-1,4.1-2.8,5.2c-1.2,0.6-2.5,0.9-3.9,0.9c-0.5,0-1,0-1.5-0.1c-1.2-0.1-2.5-0.8-3.1-1.9l0,0l0,0
		c-0.3-0.8-0.5-1.6-0.5-2.4C129,232,130.7,229.2,133.5,228.7L133.5,228.7L133.5,228.7c-2.8,0.5-4.5,3.3-4.5,6c0,0.8,0.2,1.7,0.5,2.4
		l0,0c0.6,1.1,1.9,1.8,3.1,1.9c0.5,0.1,1,0.1,1.5,0.1c1.4,0,2.7-0.2,3.9-0.9c1.8-1,2.8-3.2,2.8-5.2l0-0.2l0,0l0,0c0-0.1,0-0.2,0-0.3
		c0-1.2-0.4-2.4-1.4-3.2c-1-0.7-2.2-1-3.5-1C135.1,228.5,134.3,228.6,133.5,228.7L133.5,228.7z"/>
	<path id="XMLID_191_" class="st10" d="M74.5,231.1c0.1-1.1,1.1-2.1,2.3-2.1c8.6,0,17.1,0,25.7,0c0.9-0.1,1.9,0.3,2.4,1.2
		c0.6,1.1,0.1,2.3,0,3.5c-0.3,1.6-0.2,3.6-2,4.2c-6.2,0.2-12.5,0-18.7,0.1c-0.6,3.9-1.2,7.8-1.7,11.8c0,0.1,0,0.5,0,0.6
		c4.6,0,9.1,0,13.7,0c1.3-0.1,2.6,1,2.5,2.3c-0.1,1.4-0.4,2.7-0.6,4.1c-0.1,0.9-0.9,1.8-1.9,2c-5.1,0.1-10.3-0.1-15.4,0.1
		c-0.8,5.6-1.8,11.2-2.6,16.8c-0.1,1.1-1,2.1-2.1,2.1c-2.1,0-4.2,0-6.4,0c-1.4,0-2.5-1.5-2.1-2.8C69.8,260.3,72.2,245.7,74.5,231.1z
		"/>
	<path id="XMLID_192_" class="st10" d="M74.5,231.1L74.5,231.1c0.1-1.1,1.1-2.1,2.2-2.1l0.1,0c5.7,0,11.4,0,17.1,0
		c2.9,0,5.7,0,8.6,0h0l0.2,0c0.9,0,1.7,0.4,2.2,1.2c0.2,0.4,0.3,0.8,0.3,1.2c0,0.8-0.3,1.5-0.3,2.3l0,0l0,0c-0.3,1.6-0.2,3.6-2,4.2
		l0,0l0,0c-2.3,0.1-4.5,0.1-6.8,0.1c-2.8,0-5.7,0-8.5,0c-1.1,0-2.3,0-3.4,0l0,0l0,0c-0.6,3.9-1.2,7.8-1.7,11.8l0,0v0
		c0,0.1,0,0.5,0,0.6v0h0c2.3,0,4.6,0,6.9,0s4.6,0,6.9,0l0.1,0c0.6,0,1.2,0.2,1.6,0.6c0.4,0.4,0.7,0.9,0.7,1.5l0,0.2
		c-0.1,1.4-0.4,2.7-0.6,4.1c-0.1,0.9-0.9,1.8-1.9,2l0,0l0,0c-1.2,0-2.3,0-3.5,0c-2.1,0-4.1,0-6.2,0c-1.9,0-3.8,0-5.7,0.1l0,0l0,0
		c-0.8,5.6-1.8,11.2-2.6,16.8v0v0c-0.1,1.1-1,2.1-2.1,2.1c-1.1,0-2.1,0-3.2,0c-1.1,0-2.1,0-3.2,0l0,0c-0.6,0-1.1-0.3-1.5-0.7
		c-0.4-0.4-0.6-1-0.6-1.6c0-0.2,0-0.4,0.1-0.5l0,0l0,0C69.9,260.3,72.2,245.7,74.5,231.1L74.5,231.1L74.5,231.1L74.5,231.1
		c-2.3,14.7-4.7,29.3-7,43.9l0,0l0,0c0,0.2-0.1,0.3-0.1,0.5c0,1.1,1,2.3,2.1,2.3l0,0c1.1,0,2.1,0,3.2,0c1.1,0,2.1,0,3.2,0
		c1.1,0,2-1,2.1-2.1l0,0l0,0c0.9-5.6,1.8-11.2,2.6-16.8l0,0l0,0c1.9-0.1,3.8-0.1,5.7-0.1c2.1,0,4.1,0,6.2,0c1.2,0,2.3,0,3.5,0h0l0,0
		c1-0.2,1.7-1,1.9-2c0.2-1.4,0.5-2.7,0.6-4.1l0-0.2c0-1.2-1.2-2.2-2.4-2.2l-0.1,0c-2.3,0-4.6,0-6.9,0s-4.6,0-6.9,0l0,0h0
		c0-0.1,0-0.5,0-0.6h0l0,0c0.6-3.9,1.2-7.8,1.7-11.8l0,0l0,0c1.1,0,2.3,0,3.4,0c2.8,0,5.7,0,8.5,0c2.3,0,4.5,0,6.8-0.1h0l0,0
		c1.8-0.6,1.8-2.7,2-4.2l0,0v0c0-0.7,0.3-1.5,0.3-2.3c0-0.4-0.1-0.8-0.3-1.2c-0.4-0.8-1.3-1.2-2.2-1.2l-0.2,0l0,0v0
		c-2.9,0-5.7,0-8.6,0c-5.7,0-11.4,0-17.1,0l-0.1,0C75.6,229,74.6,230,74.5,231.1L74.5,231.1L74.5,231.1L74.5,231.1z"/>
	<path id="XMLID_193_" class="st10" d="M112.3,229.1c1.9-0.1,3.9,0,5.8-0.1c1.2-0.1,2.4,0.9,2.5,2.1c0,1-0.3,1.9-0.4,2.9
		c-1.6,10-3.2,19.9-4.7,29.9c-0.2,1.6-0.6,3.3-0.1,4.9c0.6,1.6,3,0.9,3.6,2.6c0.4,1.4,0,2.8-0.1,4.2c-0.1,1.9-2.2,2.3-3.7,2.7
		c-3.2,0.6-7,0.1-9.3-2.5c-1.6-1.9-1.7-4.6-1.4-7c2-12.6,3.9-25.3,6-38C110.6,230.1,111.4,229.2,112.3,229.1z"/>
	<path id="XMLID_194_" class="st10" d="M112.3,229.1L112.3,229.1c0.8-0.1,1.7-0.1,2.5-0.1c0.8,0,1.6,0,2.4,0c0.3,0,0.6,0,0.9,0
		l0.1,0c1.1,0,2.2,0.9,2.4,2.1l0,0h0c0,1-0.3,1.9-0.4,2.9l0,0l0,0c-1.6,10-3.2,19.9-4.7,29.9c-0.1,1.1-0.4,2.2-0.4,3.3
		c0,0.6,0.1,1.1,0.2,1.7c0.3,0.8,1,1.1,1.8,1.3c0.8,0.2,1.5,0.5,1.8,1.3l0,0l0,0c0.1,0.4,0.2,0.8,0.2,1.3c0,1-0.2,2-0.3,3
		c-0.1,1.9-2.2,2.3-3.7,2.7l0,0l0,0c-0.8,0.1-1.6,0.2-2.5,0.2c-2.5,0-5.1-0.7-6.8-2.7c-1.2-1.4-1.6-3.1-1.6-4.9c0-0.7,0.1-1.4,0.2-2
		c2-12.6,3.9-25.3,6-38v0C110.6,230.1,111.4,229.2,112.3,229.1L112.3,229.1L112.3,229.1L112.3,229.1L112.3,229.1
		c-1,0.1-1.7,1-1.8,1.9l0,0l0,0c-2,12.7-4,25.3-6,38c-0.1,0.7-0.2,1.4-0.2,2c0,1.8,0.4,3.5,1.6,4.9c1.7,2,4.3,2.7,6.8,2.7
		c0.8,0,1.7-0.1,2.5-0.2l0,0c1.4-0.4,3.6-0.8,3.7-2.7c0.1-1,0.3-2,0.3-3c0-0.4,0-0.8-0.2-1.3l0,0l0,0c-0.3-0.9-1.1-1.1-1.8-1.4
		c-0.8-0.2-1.5-0.5-1.8-1.3c-0.2-0.6-0.2-1.1-0.2-1.7c0-1.1,0.2-2.2,0.4-3.3c1.6-10,3.2-19.9,4.7-29.9v0c0.1-1,0.4-1.9,0.4-2.9v0v0
		c-0.1-1.2-1.2-2.1-2.4-2.1l-0.1,0c-0.3,0-0.6,0-0.9,0c-0.8,0-1.6,0-2.4,0C114,229,113.2,229,112.3,229.1L112.3,229.1L112.3,229.1z"
		/>
	<path id="XMLID_195_" class="st10" d="M186.1,231.1c0.1-1.1,1.1-2.1,2.2-2.1c1.9,0,3.8,0,5.7,0c1.4,0,2.6,1.5,2.2,2.8
		c-1.3,8.3-2.6,16.5-3.9,24.8c2-0.3,4.2-0.7,5.6-2.3c2.3-2.6,4.2-5.6,5.6-8.8c0.5-1.2,0.7-3,2.3-3.2c2.1-0.1,4.3,0,6.4,0
		c1.5,0,2.5,1.6,2,2.9c-0.6,2-1.5,3.8-2.5,5.5c-2.2,3.5-4.5,7-7.7,9.7c1.4,4.1,3.1,8.1,4.6,12.2c0.4,1.3,1.5,2.9,0.5,4.2
		c-1.2,1.6-3.3,0.8-4.9,1c-1.7-0.2-4.1,0.7-5-1.2c-1.7-4.1-3.2-8.2-5-12.3c-1,0-2.1,0.1-3.2,0c-0.1,0.1-0.2,0.4-0.3,0.6
		c-0.6,3.7-1.2,7.4-1.7,11.2c-0.2,0.9-0.9,1.7-1.9,1.7c-2,0.1-4,0-6,0c-0.9,0-1.6-0.6-2-1.3c-0.4-0.7-0.1-1.6,0-2.4
		C181.6,259.8,183.9,245.4,186.1,231.1z"/>
	<path id="XMLID_196_" class="st10" d="M186.1,231.1L186.1,231.1c0.1-1.1,1.1-2.1,2.2-2.1c1.9,0,3.8,0,5.7,0l0.1,0
		c0.6,0,1.2,0.3,1.6,0.7c0.4,0.4,0.7,1,0.7,1.6c0,0.2,0,0.3-0.1,0.5l0,0v0c-1.3,8.3-2.6,16.5-3.9,24.8l0,0l0,0
		c2-0.3,4.2-0.7,5.6-2.3c2.3-2.6,4.2-5.6,5.6-8.8l0,0v0c0.5-1.2,0.7-3,2.3-3.2l0,0l0,0c0.9,0,1.8,0,2.7,0c1.2,0,2.5,0,3.7,0l0,0
		c0.6,0,1.1,0.3,1.5,0.7c0.4,0.4,0.6,1,0.6,1.6c0,0.2,0,0.5-0.1,0.7l0,0v0c-0.6,2-1.5,3.8-2.5,5.5l0,0l0,0c-2.2,3.5-4.5,7-7.7,9.7
		l0,0l0,0c1.4,4.1,3.1,8.1,4.6,12.2c0.3,0.9,0.9,2,0.9,3c0,0.4-0.1,0.8-0.4,1.2c-0.6,0.8-1.5,1-2.5,1c-0.6,0-1.2-0.1-1.8-0.1
		c-0.2,0-0.4,0-0.6,0l0,0l0,0c-0.2,0-0.4,0-0.6,0c-0.6,0-1.2,0.1-1.8,0.1c-1.1,0-2.1-0.2-2.6-1.3l0,0l0,0c-1.7-4.1-3.2-8.2-5-12.3
		l0,0l0,0c-0.5,0-1.1,0-1.6,0c-0.5,0-1.1,0-1.6-0.1l0,0l0,0c-0.1,0.1-0.2,0.4-0.3,0.6l0,0l0,0c-0.6,3.7-1.2,7.4-1.7,11.2l0,0l0,0
		c-0.2,0.9-0.9,1.7-1.9,1.7c-1,0-2,0-3,0c-1,0-2,0-3,0c-0.9,0-1.6-0.6-2-1.3c-0.2-0.3-0.2-0.6-0.2-1c0-0.5,0.1-1,0.2-1.4
		C181.6,259.8,183.9,245.4,186.1,231.1L186.1,231.1L186.1,231.1L186.1,231.1L186.1,231.1c-2.3,14.4-4.5,28.7-6.8,43.1
		c-0.1,0.5-0.2,1-0.2,1.4c0,0.3,0.1,0.7,0.2,1c0.4,0.7,1.2,1.3,2,1.3c1,0,2,0,3,0c1,0,2,0,3,0c1-0.1,1.7-0.9,1.9-1.8l0,0v0
		c0.6-3.7,1.2-7.4,1.7-11.2l0,0l0,0c0.1-0.1,0.2-0.4,0.3-0.6l0,0l0,0c0.5,0.1,1,0.1,1.6,0.1c0.5,0,1.1,0,1.6,0l0,0l0,0
		c1.8,4.1,3.2,8.2,5,12.3l0,0c0.5,1.1,1.5,1.3,2.6,1.3c0.6,0,1.3-0.1,1.8-0.1c0.2,0,0.4,0,0.6,0l0,0l0,0c0.2,0,0.4,0,0.6,0
		c0.6,0,1.2,0.1,1.8,0.1c1,0,1.9-0.2,2.5-1c0.3-0.4,0.4-0.8,0.4-1.2c0-1-0.6-2-0.9-3c-1.5-4.1-3.3-8.1-4.6-12.2l0,0l0,0
		c3.1-2.8,5.5-6.2,7.7-9.7l0,0l0,0c1-1.7,1.9-3.6,2.5-5.5l0,0l0,0c0.1-0.2,0.1-0.5,0.1-0.7c0-1.1-0.9-2.3-2.1-2.3l0,0
		c-1.2,0-2.5,0-3.7,0c-0.9,0-1.8,0-2.7,0h0l0,0c-1.6,0.2-1.9,2-2.3,3.2l0,0l0,0c-1.4,3.2-3.3,6.2-5.6,8.8c-1.4,1.6-3.6,2-5.6,2.3
		l0,0l0,0c1.3-8.3,2.6-16.5,3.9-24.8l0,0l0,0c0-0.2,0.1-0.3,0.1-0.5c0-1.2-1-2.4-2.2-2.4l-0.1,0c-1.9,0-3.8,0-5.7,0
		C187.3,229,186.3,229.9,186.1,231.1L186.1,231.1L186.1,231.1L186.1,231.1z"/>
	<path id="XMLID_197_" class="st10" d="M289.5,235.1c0.3-1,1.3-1.7,2.3-1.7c1.5,0,3,0,4.5,0c1.2,0,2.2,1.3,2,2.5
		c-0.2,2.1-0.7,4.2-0.9,6.4c1.5,0,2.9,0,4.4,0c1.3,0,2.4,1.3,2.2,2.6c-0.2,1.2-0.4,2.3-0.6,3.4c-0.2,1-1,1.7-1.9,1.9
		c-1.8,0.1-3.5-0.1-5.3,0.1c-0.7,5-1.6,10-2.3,15c-0.1,1.2-0.2,2.5,0.5,3.5c1,1.2,2.8,0.8,4.2,0.9c1.1,0.3,1.8,1.6,1.6,2.7
		c-0.2,1.3-0.2,2.5-0.5,3.8c-0.4,1.4-2,1.6-3.3,2c-3.4,0.9-7.3,0.9-10.3-1.1c-2.8-1.9-3.2-5.6-2.9-8.7c0.8-6,2-12,2.7-18.1
		c-1,0-2.3,0.2-3.1-0.7c-0.9-0.9-0.4-2.3-0.3-3.5c0.2-1.2,0.2-2.8,1.5-3.5c1.1-0.4,2.3-0.1,3.5-0.3
		C288.1,239.8,288.8,237.5,289.5,235.1z"/>
	<path id="XMLID_198_" class="st10" d="M289.5,235.1L289.5,235.1c0.3-1,1.2-1.7,2.2-1.7l0.1,0c0.3,0,0.7,0,1,0c0.6,0,1.2,0,1.8,0
		c0.6,0,1.1,0,1.7,0h0c1.1,0,2.1,1.1,2.1,2.2l0,0.2c-0.2,2.1-0.7,4.2-0.9,6.4l0,0h0c1,0,2,0,2.9,0c0.5,0,1,0,1.5,0h0
		c0.6,0,1.1,0.3,1.5,0.7c0.4,0.4,0.6,1,0.6,1.6c0,0.1,0,0.2,0,0.3c-0.2,1.2-0.4,2.3-0.6,3.4l0,0l0,0c-0.2,1-1,1.7-1.9,1.9l0,0l0,0
		c-0.5,0-1,0-1.4,0c-0.6,0-1.2,0-1.9,0c-0.7,0-1.3,0-2,0.1l0,0l0,0c-0.7,5-1.6,10-2.3,15v0v0c0,0.4-0.1,0.8-0.1,1.2
		c0,0.8,0.1,1.6,0.6,2.2l0,0l0,0c0.7,0.8,1.7,0.9,2.8,0.9c0.2,0,0.3,0,0.5,0c0.3,0,0.6,0,0.9,0l0,0l0,0c1,0.3,1.7,1.3,1.7,2.3
		c0,0.1,0,0.2,0,0.4c-0.2,1.3-0.2,2.5-0.5,3.8l0,0l0,0c-0.4,1.4-2,1.6-3.3,2c-1.4,0.4-2.8,0.6-4.2,0.6c-2.1,0-4.3-0.5-6.1-1.7
		c-2.3-1.6-3-4.4-3-7.1c0-0.5,0-1.1,0.1-1.6c0.8-6,2-12,2.7-18.1l0,0l0,0c-0.3,0-0.6,0-1,0c-0.8,0-1.6-0.1-2.1-0.8l0,0l0,0
		c-0.4-0.4-0.5-1-0.5-1.5c0-0.6,0.2-1.3,0.2-1.9l0,0l0,0c0.2-1.2,0.2-2.8,1.5-3.5l0,0l0,0c0.5-0.2,1-0.2,1.6-0.2c0.3,0,0.7,0,1,0
		c0.3,0,0.6,0,0.9,0l0,0l0,0C288.1,239.8,288.8,237.5,289.5,235.1L289.5,235.1L289.5,235.1L289.5,235.1L289.5,235.1
		c-0.8,2.3-1.4,4.7-2.1,7.1l0,0l0,0c-0.3,0-0.6,0-0.8,0c-0.3,0-0.7,0-1,0c-0.5,0-1.1,0-1.6,0.2l0,0l0,0c-1.3,0.7-1.3,2.3-1.5,3.5v0
		v0c-0.1,0.6-0.2,1.3-0.2,1.9c0,0.6,0.1,1.1,0.5,1.5l0,0l0,0c0.6,0.7,1.3,0.8,2.1,0.8c0.3,0,0.7,0,1,0l0,0l0,0
		c-0.7,6.1-1.9,12-2.7,18.1c-0.1,0.5-0.1,1.1-0.1,1.6c0,2.7,0.7,5.5,3,7.1c1.8,1.2,3.9,1.7,6.1,1.7c1.4,0,2.9-0.2,4.2-0.6
		c1.2-0.3,2.8-0.6,3.3-2v0l0,0c0.3-1.2,0.3-2.5,0.5-3.8c0-0.1,0-0.2,0-0.4c0-1-0.7-2-1.7-2.3l0,0l0,0c-0.3,0-0.6,0-0.9,0
		c-0.2,0-0.3,0-0.5,0c-1,0-2.1-0.1-2.7-0.9l0,0l0,0c-0.4-0.7-0.6-1.4-0.6-2.2c0-0.4,0-0.8,0.1-1.2l0,0l0,0c0.8-5,1.6-10,2.3-15l0,0
		l0,0c0.7-0.1,1.3-0.1,2-0.1c0.6,0,1.2,0,1.9,0c0.5,0,1,0,1.4,0h0l0,0c0.9-0.1,1.8-0.9,1.9-1.9v0l0,0c0.2-1.2,0.4-2.3,0.6-3.4
		c0-0.1,0-0.2,0-0.3c0-1.2-1-2.3-2.2-2.3v0l0,0c-0.5,0-1,0-1.5,0c-1,0-2,0-2.9,0v0l0,0c0.1-2.1,0.7-4.2,0.9-6.4l0-0.2
		c0-1.1-0.9-2.2-2.1-2.2l0,0l0,0c-0.6,0-1.1,0-1.7,0c-0.6,0-1.2,0-1.8,0c-0.3,0-0.7,0-1,0l-0.1,0
		C290.7,233.4,289.7,234.1,289.5,235.1L289.5,235.1L289.5,235.1L289.5,235.1z"/>
	<path id="XMLID_199_" class="st10" d="M268.5,247.2c2.3-2.3,5.2-4.3,8.4-5.2c1.4-0.6,3.2,0.6,3.2,2.1c-0.3,2-0.7,4.1-1.1,6.1
		c-0.1,1-1,1.9-2,2c-3.6,0.6-6.8,2.8-9.3,5.4c-0.6,0.8-1.6,1.5-1.7,2.6c-0.8,5.2-1.6,10.4-2.4,15.6c-0.1,1.1-1.1,2.2-2.2,2.1
		c-1.9,0-3.8,0-5.7,0c-1.3,0.1-2.5-1.2-2.3-2.5c1.6-10.3,3.3-20.6,4.9-30.9c0.1-1,0.8-2,1.9-2.2c1.4-0.1,2.8,0,4.2,0
		c1.1,0,2.2,1,2.2,2.2c0,1.6-0.1,3.2-0.2,4.9C267.2,248.7,267.7,247.8,268.5,247.2z"/>
	<path id="XMLID_200_" class="st10" d="M268.5,247.2L268.5,247.2c2.3-2.3,5.2-4.3,8.4-5.2l0,0l0,0c0.3-0.1,0.5-0.2,0.8-0.2
		c0.6,0,1.2,0.2,1.6,0.7c0.4,0.4,0.7,1,0.7,1.6l0,0l0,0l0,0c-0.3,2-0.7,4.1-1.1,6.1c-0.1,1-1,1.9-2,2h0l0,0
		c-3.6,0.6-6.8,2.8-9.3,5.4l0,0l0,0c-0.6,0.8-1.6,1.5-1.7,2.6l0,0l0,0c-0.8,5.2-1.6,10.4-2.4,15.6v0l0,0c-0.1,1.1-1,2.1-2.1,2.1
		l-0.1,0h0h0c-1.9,0-3.8,0-5.7,0h0h0l-0.1,0c-0.6,0-1.1-0.3-1.5-0.7c-0.4-0.4-0.7-1-0.7-1.6l0-0.2c1.6-10.3,3.3-20.6,4.9-30.9v0v0
		c0.1-1,0.8-2,1.9-2.2l0,0l0,0c0.7,0,1.4,0,2.1,0c0.7,0,1.4,0,2.1,0c0.6,0,1.1,0.3,1.5,0.6c0.4,0.4,0.7,0.9,0.7,1.5
		c0,1.6-0.1,3.2-0.2,4.9l0,0l0,0C267.2,248.7,267.7,247.8,268.5,247.2L268.5,247.2L268.5,247.2L268.5,247.2L268.5,247.2
		c-0.7,0.7-1.3,1.6-2.2,2.1l0,0l0,0c0-1.6,0.2-3.3,0.2-4.9c0-1.2-1-2.2-2.2-2.2c-0.7,0-1.4,0-2.1,0c-0.7,0-1.4,0-2.1,0h0h0
		c-1.1,0.1-1.8,1.1-1.9,2.2l0,0l0,0c-1.6,10.3-3.2,20.6-4.9,30.9l0,0.2c0,1.2,1,2.3,2.2,2.3l0.1,0l0,0v0c1.9,0,3.8,0,5.7,0v0l0,0
		l0.1,0c1.1,0,2-1,2.1-2.1l0,0l0,0c0.8-5.2,1.6-10.4,2.4-15.6v0v0c0.1-1.1,1-1.8,1.7-2.6l0,0l0,0c2.5-2.6,5.7-4.8,9.3-5.4l0,0l0,0
		c1-0.1,1.9-1,2-2c0.3-2,0.8-4,1.1-6.1v0v0l0,0c0-1.3-1.2-2.3-2.4-2.3c-0.3,0-0.6,0.1-0.8,0.2l0,0l0,0
		C273.7,242.9,270.8,244.8,268.5,247.2L268.5,247.2L268.5,247.2L268.5,247.2z"/>
	<path id="XMLID_201_" class="st10" d="M129.5,242.4c2-0.4,4.1-0.1,6.1-0.2c1.2-0.1,2.4,0.6,2.6,1.7c0.1,1-0.1,2-0.3,3
		c-1.5,9.6-3,19.1-4.5,28.7c-0.1,1.1-1,2.2-2.2,2.1c-2,0-4,0-6.1,0c-1.3-0.1-2.2-1.6-1.9-2.8c1.6-9.9,3.1-19.8,4.7-29.8
		C128.1,244.2,128.4,242.9,129.5,242.4z"/>
	<path id="XMLID_202_" class="st10" d="M129.5,242.4L129.5,242.4c0.8-0.2,1.7-0.2,2.5-0.2c0.9,0,1.8,0,2.6,0c0.3,0,0.6,0,1,0h0
		c0.1,0,0.2,0,0.3,0c1.1,0,2.1,0.7,2.3,1.8c0,0.2,0,0.4,0,0.6c0,0.8-0.2,1.6-0.3,2.4l0,0l0,0c-1.5,9.6-3,19.1-4.5,28.7v0
		c-0.1,1.1-1,2.1-2.1,2.1l-0.1,0c-1,0-2,0-3,0c-1,0-2,0-3,0l0,0l0,0c-1.1-0.1-1.9-1.2-1.9-2.3c0-0.2,0-0.4,0.1-0.5l0,0v0
		c1.6-9.9,3.1-19.8,4.7-29.8v0l0,0C128.1,244.2,128.4,242.9,129.5,242.4L129.5,242.4L129.5,242.4L129.5,242.4L129.5,242.4
		c-1.1,0.4-1.4,1.7-1.5,2.8l0,0l0,0c-1.6,9.9-3.1,19.8-4.7,29.8l0,0l0,0c0,0.2-0.1,0.3-0.1,0.5c0,1.1,0.8,2.2,1.9,2.3l0,0
		c1,0,2,0,3,0c1,0,2,0,3,0l0.1,0c1.1,0,2-1.1,2.1-2.1l0,0l0,0c1.5-9.6,3-19.1,4.5-28.7l0,0c0.1-0.8,0.3-1.6,0.3-2.5
		c0-0.2,0-0.4,0-0.6c-0.2-1.1-1.2-1.8-2.3-1.8c-0.1,0-0.2,0-0.3,0l0,0l0,0c-0.3,0-0.6,0-1,0c-0.9,0-1.8,0-2.6,0
		C131.1,242.2,130.3,242.3,129.5,242.4L129.5,242.4L129.5,242.4L129.5,242.4z"/>
	<path id="XMLID_205_" class="st10" d="M249.8,242.9c-5.5-1-11.2-1.8-16.8-1.2c-5,0.6-10.1,2.9-13.2,7c-4.3,5.4-5.7,12.7-4.8,19.5
		c0.5,3.2,1.9,6.5,4.6,8.5c2.5,1.9,5.8,2.2,8.7,1.7c4.2-0.8,7.7-3.5,10.6-6.5c0.1,1.3-0.1,2.5-0.1,3.8c0.1,1.2,1.1,2.2,2.3,2.2
		c1.3,0,2.5,0,3.8,0c1.1,0,2-1,2.1-2.1c1.6-10.1,3.2-20.1,4.8-30.2C252.1,244.3,251.1,243.1,249.8,242.9z M239.4,260.4
		c-1.5,2.8-3.6,5.3-5.9,7.5c-1.3,1.1-3,2.3-4.9,1.9c-1.8-0.4-2.6-2.2-3-3.8c-0.9-4.2-0.1-8.7,2.3-12.3c1-1.7,2.7-2.9,4.6-3.5
		c2.7-0.7,5.6-0.3,8.2,0.4l0.1,0.1C240.5,254,239.8,257.2,239.4,260.4z"/>
	<path id="XMLID_208_" class="st10" d="M249.8,242.9L249.8,242.9c-4.2-0.8-8.5-1.4-12.8-1.4c-1.3,0-2.7,0.1-4,0.2
		c-5,0.6-10.1,2.9-13.2,7c-3.4,4.4-5,9.9-5,15.5c0,1.4,0.1,2.7,0.3,4c0.5,3.2,1.9,6.5,4.6,8.5c1.8,1.4,4,1.9,6.2,1.9
		c0.9,0,1.7-0.1,2.5-0.2c4.2-0.8,7.7-3.5,10.6-6.5l0,0l0,0c0,0.3,0,0.5,0,0.8c0,0.9-0.1,1.7-0.1,2.6c0,0.1,0,0.3,0,0.4
		c0.1,1.1,1.1,2.2,2.2,2.2l0.1,0l0,0v0c1.3,0,2.5,0,3.8,0c1.1,0,2.1-1,2.1-2.1l0,0l0,0c1.6-10.1,3.2-20.1,4.8-30.2
		c0-0.1,0-0.2,0-0.4C251.9,244.1,251,243.1,249.8,242.9L249.8,242.9L249.8,242.9L249.8,242.9L249.8,242.9c1.1,0.1,2.1,1.2,2.1,2.3
		c0,0.1,0,0.2,0,0.4c-1.6,10-3.2,20.1-4.8,30.2l0,0v0c-0.1,1.1-1,2.1-2.1,2.1c-1.3,0-2.5,0-3.8,0h0h0l-0.1,0c-1.1,0-2.1-1-2.1-2.2
		c0-0.1,0-0.3,0-0.4c0-0.8,0.1-1.7,0.1-2.6c0-0.3,0-0.5,0-0.8l0,0l0,0c-2.9,3-6.4,5.7-10.6,6.5c-0.8,0.1-1.7,0.2-2.5,0.2
		c-2.2,0-4.4-0.5-6.2-1.9c-2.6-2-4.1-5.3-4.6-8.5c-0.2-1.3-0.3-2.7-0.3-4c0-5.5,1.6-11.1,5-15.4c3.1-4.1,8.1-6.4,13.2-7
		c1.3-0.1,2.6-0.2,4-0.2C241.3,241.5,245.6,242.1,249.8,242.9L249.8,242.9L249.8,242.9L249.8,242.9z M239.4,260.4L239.4,260.4
		c-1.5,2.8-3.6,5.3-5.9,7.5l0,0l0,0c-1.2,1-2.6,2-4.2,2c-0.2,0-0.5,0-0.7-0.1c-1.8-0.4-2.6-2.2-3-3.8c-0.2-1.1-0.4-2.2-0.4-3.4
		c0-3.1,0.9-6.3,2.6-8.9c1-1.7,2.7-2.9,4.6-3.5c1-0.3,2.1-0.4,3.1-0.4c1.7,0,3.5,0.3,5.1,0.8l0,0l0,0l0.1,0.1l0,0l0,0
		C240.5,254,239.8,257.2,239.4,260.4L239.4,260.4L239.4,260.4L239.4,260.4L239.4,260.4c0.5-3.2,1.1-6.4,1.5-9.7l0,0l-0.2-0.2l0,0
		c-1.7-0.5-3.4-0.8-5.1-0.8c-1,0-2.1,0.1-3.1,0.4c-1.9,0.5-3.6,1.8-4.7,3.5c-1.7,2.6-2.6,5.8-2.6,8.9c0,1.1,0.1,2.3,0.4,3.4
		c0.4,1.6,1.3,3.5,3.1,3.8c0.2,0,0.5,0.1,0.7,0.1c1.6,0,3-1,4.2-2l0,0C235.8,265.8,237.9,263.2,239.4,260.4L239.4,260.4L239.4,260.4
		L239.4,260.4z"/>
	<path id="XMLID_211_" class="st10" d="M176.8,254.9c0-3.7-1-7.6-3.6-10.4c-1.8-2-4.5-3-7.1-2.9c-4.3-0.1-8.4,2-11.5,4.8
		c-0.7,0.6-1.2,1.4-2,1.8c0-1.2,0.1-2.5,0.1-3.7c0-1.2-1-2.2-2.2-2.2c-1.3,0-2.5,0-3.8,0c-1.2,0-2.2,1-2.2,2.2
		c-2.3,14.9-4.7,29.8-7.1,44.6c-0.3,1.4,0.9,2.8,2.3,2.8c2.1,0,4.2,0.1,6.2-0.1c1.6-0.4,1.6-2.3,1.9-3.7c0.6-3.3,1-6.5,1.4-9.9
		c7.3,1.4,15.8,0.4,21.3-5.1C175,268.1,177,261.4,176.8,254.9z M166.4,258.6c-0.2,3.4-1.5,6.9-3.8,9.4c-3.1,2.9-7.8,2.5-11.6,1.5
		c-0.1-0.1-0.2-0.3-0.2-0.4c0.6-3.2,0.9-6.5,1.6-9.7c2.1-3.4,4.6-6.9,8.2-8.8c1.3-0.6,3.2-0.5,4.1,0.7
		C166.4,253.4,166.5,256.1,166.4,258.6z"/>
	<path id="XMLID_214_" class="st10" d="M176.8,254.9L176.8,254.9c0-3.7-1-7.6-3.6-10.4c-1.8-1.9-4.4-2.9-6.9-2.9l-0.1,0
		c-0.1,0-0.3,0-0.4,0c-4.2,0-8,2.1-11.1,4.8l0,0l0,0c-0.7,0.6-1.2,1.4-2,1.8l0,0h0c0-1.1,0.1-2.1,0.1-3.2c0-0.2,0-0.4,0-0.5l0,0l0,0
		l0-0.1c0-1.1-1.1-2.1-2.2-2.1c-1.3,0-2.5,0-3.8,0c-1.2,0-2.2,1-2.2,2.2l0,0l0,0c-2.3,14.9-4.7,29.8-7.1,44.6l0,0l0,0
		c0,0.2-0.1,0.3-0.1,0.5c0,1.2,1,2.3,2.3,2.3l0.1,0c0.2,0,0.4,0,0.6,0c0.9,0,1.8,0,2.7,0c1,0,2,0,2.9-0.2h0l0,0
		c1.6-0.4,1.6-2.4,1.9-3.7c0.6-3.3,1-6.5,1.4-9.9l0,0l0,0c1.9,0.4,4,0.6,6,0.6c5.6,0,11.3-1.6,15.3-5.7c4.2-4.6,6.3-11,6.3-17.2
		C176.8,255.5,176.8,255.2,176.8,254.9L176.8,254.9L176.8,254.9c0,0.3,0,0.6,0,0.9c0,6.2-2.1,12.6-6.3,17.2c-4,4.1-9.7,5.7-15.3,5.7
		c-2,0-4-0.2-6-0.6l0,0l0,0c-0.4,3.3-0.8,6.6-1.4,9.9c-0.3,1.4-0.2,3.3-1.9,3.7l0,0l0,0c-1,0.1-1.9,0.2-2.9,0.2c-0.9,0-1.8,0-2.7,0
		c-0.2,0-0.4,0-0.6,0l-0.1,0c-0.6,0-1.2-0.3-1.6-0.7c-0.4-0.4-0.7-1-0.7-1.6c0-0.2,0-0.3,0.1-0.5l0,0c2.3-14.9,4.7-29.8,7.1-44.6
		l0,0v0c0.1-1.1,1-2.2,2.2-2.2c1.3,0,2.5,0,3.8,0c0.5,0,1.1,0.2,1.5,0.6c0.4,0.4,0.7,0.9,0.7,1.5l0,0.1v0v0c0,0.2,0,0.4,0,0.5
		c0,1.1-0.1,2.1-0.1,3.2v0l0,0c0.8-0.4,1.3-1.3,2-1.8l0,0l0,0c3.1-2.7,6.9-4.8,11.1-4.8c0.1,0,0.3,0,0.4,0l0.1,0
		c2.6,0,5.2,1,6.9,2.9C175.8,247.2,176.8,251.1,176.8,254.9L176.8,254.9z M166.4,258.6L166.4,258.6c-0.2,3.4-1.5,6.9-3.8,9.4l0,0
		l0,0c-1.8,1.7-4.1,2.3-6.4,2.3c-1.7,0-3.5-0.3-5.1-0.7l0,0l0,0c-0.1-0.1-0.2-0.3-0.2-0.4l0,0l0,0c0.6-3.2,0.9-6.5,1.6-9.7l0,0l0,0
		c2.1-3.4,4.6-6.9,8.2-8.8l0,0l0,0c0.5-0.2,1.1-0.4,1.6-0.4c0.9,0,1.9,0.3,2.5,1.1c1.3,1.7,1.7,3.8,1.7,5.9
		C166.4,257.7,166.4,258.2,166.4,258.6L166.4,258.6L166.4,258.6c0-0.5,0.1-0.9,0.1-1.4c0-2.1-0.3-4.2-1.7-5.9
		c-0.6-0.8-1.5-1.1-2.5-1.1c-0.6,0-1.1,0.1-1.7,0.4l0,0c-3.6,1.9-6.1,5.4-8.2,8.8l0,0l0,0c-0.7,3.2-1,6.5-1.6,9.7l0,0l0,0
		c0,0.1,0.1,0.3,0.2,0.4l0,0l0,0c1.6,0.4,3.4,0.7,5.1,0.7c2.4,0,4.7-0.6,6.4-2.3l0,0C165,265.5,166.2,262,166.4,258.6L166.4,258.6z"
		/>
</g>
</svg>
