<?xml version="1.0" encoding="utf-8"?>
<!-- Generator: Adobe Illustrator 24.1.1, SVG Export Plug-In . SVG Version: 6.00 Build 0)  -->
<svg version="1.1" id="Layer_1" xmlns="http://www.w3.org/2000/svg" xmlns:xlink="http://www.w3.org/1999/xlink" x="0px" y="0px"
	 viewBox="0 0 512 512" style="enable-background:new 0 0 512 512;" xml:space="preserve">
<g>
	<path d="M24.7,297.7H0v-83.1h42.6l48.9,62v-62h24.7v83.1H74.5l-49.8-63.1V297.7z M234.2,272c0,11.5-2.1,15.5-5.5,19.3
		c-5.2,5.7-12.8,7.4-27.4,7.4h-42.1c-14.7,0-22.3-1.7-27.5-7.4c-3.4-3.8-5.5-7.7-5.5-19.3v-32c0-11.5,2.1-15.5,5.5-19.3
		c5.3-5.7,12.8-7.4,27.5-7.4h42.1c14.6,0,22.3,1.7,27.4,7.4c3.4,3.7,5.5,7.7,5.5,19.3V272z M200.1,277.7c5.7,0,7.6-0.3,9-1.6
		c1.2-1.2,1.8-2.6,1.8-7.5v-25.3c0-4.8-0.6-6.3-1.8-7.4c-1.4-1.3-3.3-1.6-9-1.6h-40c-5.6,0-7.6,0.3-8.9,1.6
		c-1.3,1.1-1.8,2.6-1.8,7.4v25.3c0,4.9,0.6,6.3,1.8,7.5c1.3,1.3,3.3,1.6,8.9,1.6H200.1z M270,214.6v83.1h-25.8v-83.1H270z
		 M313.6,214.6h33.9l-45.9,38.9l51.8,44.2H317L270,254.4L313.6,214.6L313.6,214.6z M358.2,214.7h25.8v83h-25.8V214.7z M482.2,297.7
		l-7.7-14.4h-49.9l-7.5,14.4h-28.4l45.6-83.1h32l45.7,83.1H482.2L482.2,297.7z M433.6,265.2h32l-16-30.1L433.6,265.2z"/>
</g>
</svg>
